<?xml version="1.0" encoding="UTF-8" standalone="no"?>
<!-- Created with Inkscape (http://www.inkscape.org/) -->

<svg
   xmlns:dc="http://purl.org/dc/elements/1.1/"
   xmlns:cc="http://creativecommons.org/ns#"
   xmlns:rdf="http://www.w3.org/1999/02/22-rdf-syntax-ns#"
   xmlns:svg="http://www.w3.org/2000/svg"
   xmlns="http://www.w3.org/2000/svg"
   xmlns:sodipodi="http://sodipodi.sourceforge.net/DTD/sodipodi-0.dtd"
   xmlns:inkscape="http://www.inkscape.org/namespaces/inkscape"
   width="115.45455mm"
   height="115.45455mm"
   viewBox="0 0 115.45455 115.45455"
   version="1.1"
   id="svg8"
   sodipodi:docname="hand.svg"
   inkscape:version="0.92.3 (2405546, 2018-03-11)">
  <defs
     id="defs2" />
  <sodipodi:namedview
     id="base"
     pagecolor="#ffffff"
     bordercolor="#666666"
     borderopacity="1.0"
     inkscape:pageopacity="0.0"
     inkscape:pageshadow="2"
     inkscape:zoom="1.4142136"
     inkscape:cx="286.86292"
     inkscape:cy="220.58875"
     inkscape:document-units="mm"
     inkscape:current-layer="layer1"
     showgrid="false"
     fit-margin-top="0"
     fit-margin-left="0"
     fit-margin-right="0"
     fit-margin-bottom="0"
     inkscape:snap-to-guides="false"
     inkscape:window-width="1855"
     inkscape:window-height="1056"
     inkscape:window-x="65"
     inkscape:window-y="24"
     inkscape:window-maximized="1" />
  <metadata
     id="metadata5">
    <rdf:RDF>
      <cc:Work
         rdf:about="">
        <dc:format>image/svg+xml</dc:format>
        <dc:type
           rdf:resource="http://purl.org/dc/dcmitype/StillImage" />
        <dc:title></dc:title>
      </cc:Work>
    </rdf:RDF>
  </metadata>
  <g
     inkscape:label="Face"
     inkscape:groupmode="layer"
     id="layer1"
     transform="translate(-6.906652,-121.91112)"
     style="display:none">
    <path
       inkscape:connector-curvature="0"
       id="path832"
       d="m 60.785444,237.25572 c -0.370417,-0.0419 -1.582689,-0.17191 -2.69394,-0.28899 C 44.519139,235.5368 30.986607,228.58968 21.873364,218.37365 13.778393,209.2991 9.0664256,199.09552 7.3623105,186.95052 c -0.4723013,-3.36603 -0.4723013,-11.25822 0,-14.62425 2.2295068,-15.8894 10.1196525,-29.40696 22.6960615,-38.88337 7.860192,-5.92271 17.000555,-9.6361 27.263435,-11.07612 3.36603,-0.4723 11.258214,-0.4723 14.624243,0 15.881278,2.22836 29.40733,10.12044 38.87164,22.68054 5.93511,7.87647 9.64668,17.00789 11.08786,27.27895 0.4723,3.36603 0.4723,11.25822 0,14.62425 -1.44118,10.27106 -5.15275,19.40248 -11.08786,27.27895 -9.44064,12.52868 -23.060399,20.48799 -38.775427,22.66015 -2.001057,0.27659 -9.803535,0.53034 -11.256819,0.3661 z m 9.717425,-1.64992 c 10.334317,-0.98036 20.70264,-5.21843 29.193793,-11.93301 2.538658,-2.00751 6.964148,-6.433 8.971658,-8.97166 6.72047,-8.49859 10.80721,-18.4948 11.97462,-29.29001 0.28109,-2.5993 0.28109,-8.94615 0,-11.54545 -1.16741,-10.79521 -5.25415,-20.79142 -11.97462,-29.29001 -2.00751,-2.53866 -6.433,-6.96415 -8.971658,-8.97166 -8.498592,-6.72047 -18.494793,-10.80721 -29.290006,-11.97461 -2.599307,-0.28109 -8.946147,-0.28109 -11.545455,0 -10.795212,1.1674 -20.791413,5.25414 -29.290005,11.97461 -2.538659,2.00751 -6.964153,6.433 -8.971661,8.97166 -6.720469,8.49859 -10.8072095,18.4948 -11.9746144,29.29001 -0.2810916,2.5993 -0.2810916,8.94615 0,11.54545 1.1674049,10.79521 5.2541454,20.79142 11.9746144,29.29001 2.007508,2.53866 6.433002,6.96415 8.971661,8.97166 5.444019,4.30499 12.092413,7.82727 18.35848,9.72622 7.56546,2.29274 14.510251,2.97167 22.573193,2.20679 z m -6.446213,-8.72725 v -5.86894 h 0.865909 0.865909 v 5.86894 5.86894 h -0.865909 -0.865909 z m -4.138449,4.7625 c 0.133627,-1.12944 0.673237,-6.9823 0.674149,-7.31212 3.85e-4,-0.13229 0.13055,-0.24053 0.2893,-0.24053 0.356861,0 0.357009,-0.0724 -0.0084,4.13712 -0.357715,4.12043 -0.39498,4.32954 -0.771552,4.32954 -0.234767,0 -0.270524,-0.17814 -0.183459,-0.91401 z m 10.511483,-2.88637 c -0.238641,-1.87854 -0.482402,-3.74024 -0.541694,-4.13712 -0.09307,-0.62297 -0.05677,-0.72159 0.265603,-0.72159 0.338505,0 0.413672,0.31022 0.804264,3.31932 0.236975,1.82563 0.481071,3.68733 0.542437,4.13712 0.09823,0.71998 0.06682,0.81781 -0.262571,0.81781 -0.340229,0 -0.413479,-0.30962 -0.808039,-3.41554 z m -16.095944,2.59773 c 0.05393,-0.23812 0.401556,-2.11387 0.772498,-4.16833 0.370942,-2.05445 0.698985,-3.75991 0.728984,-3.78991 0.03,-0.03 0.172405,0.0183 0.316457,0.10733 0.215823,0.13338 0.13295,0.8765 -0.470945,4.22287 -0.642341,3.55941 -0.776839,4.061 -1.088955,4.061 -0.270058,0 -0.332406,-0.10461 -0.258039,-0.43296 z m 21.210107,-4.13406 c -0.508293,-2.19772 -0.919599,-4.06081 -0.914015,-4.14018 0.0056,-0.0794 0.123829,-0.14432 0.262768,-0.14432 0.169792,0 0.55567,1.27757 1.176936,3.89659 1.106055,4.66272 1.039592,4.24474 0.687115,4.32118 -0.22753,0.0493 -0.48429,-0.78336 -1.212804,-3.93327 z m -26.425274,3.26521 c -0.321172,-0.20864 2.051348,-8.03077 2.435802,-8.03077 0.155835,0 0.283335,0.0866 0.283335,0.19242 0,0.34585 -2.298019,7.98569 -2.401135,7.98267 -0.05521,-0.002 -0.19831,-0.0666 -0.318002,-0.14432 z m 32.548618,-1.03939 c -0.899676,-2.4899 -2.601449,-7.49443 -2.601449,-7.65027 0,-0.11386 0.114744,-0.20702 0.254987,-0.20702 0.158113,0 0.76123,1.44383 1.5875,3.80038 0.732882,2.09021 1.332513,3.87975 1.332513,3.97677 0,0.29068 -0.473568,0.35685 -0.573551,0.0801 z M 43.785035,228.5613 c -0.0895,-0.14482 2.856107,-7.33277 3.111103,-7.59178 0.07381,-0.075 0.234781,-0.0741 0.357729,0.002 0.155904,0.0964 -0.25213,1.28609 -1.348579,3.93216 -1.411353,3.40603 -1.829747,4.12782 -2.120253,3.65777 z m 42.514554,-2.38725 c -0.357078,-0.77669 -1.134974,-2.44044 -1.728657,-3.6972 -1.163933,-2.46394 -1.213279,-2.62179 -0.819588,-2.62179 0.148388,0 0.967709,1.50625 1.910201,3.51175 1.840823,3.91701 1.873352,4.00476 1.530968,4.13015 -0.152639,0.0559 -0.486268,-0.43839 -0.892924,-1.32291 z m -47.700798,0.006 -0.73135,-0.37893 0.372123,-0.61577 c 0.20467,-0.33868 1.430507,-2.47748 2.724083,-4.7529 1.293578,-2.27541 2.47273,-4.32899 2.620343,-4.56351 l 0.268386,-0.42638 0.673352,0.39729 c 0.370343,0.2185 0.673352,0.46902 0.673352,0.55671 0,0.17232 -5.515526,9.82081 -5.735696,10.03363 -0.07328,0.0708 -0.462351,-0.0417 -0.864593,-0.25014 z m 51.563178,-1.36994 c -1.757339,-3.08763 -4.947487,-9.27113 -4.875928,-9.45107 0.04774,-0.12004 0.35138,-0.37182 0.674762,-0.55952 l 0.587968,-0.34126 0.470054,0.82233 c 0.258531,0.45228 1.486841,2.72732 2.729576,5.05565 1.242738,2.32834 2.29591,4.29695 2.340383,4.37469 0.07802,0.13639 -1.047756,0.9148 -1.325152,0.91626 -0.07491,3.9e-4 -0.345662,-0.36729 -0.601663,-0.81708 z m -56.31592,-1.69147 c 0,-0.34971 4.705872,-6.91747 4.906818,-6.84821 0.395746,0.1364 0.09514,0.68237 -2.106152,3.82528 -1.983092,2.83137 -2.800666,3.71383 -2.800666,3.02293 z m 60.125272,-4.81261 c -1.726209,-2.30658 -2.394997,-3.34142 -2.251918,-3.4845 0.143077,-0.14308 0.951669,0.79337 2.722661,3.15318 1.385525,1.84619 2.519139,3.41421 2.519139,3.4845 0,0.0703 -0.12025,0.12779 -0.267221,0.12779 -0.146974,0 -1.37217,-1.47644 -2.722661,-3.28097 z M 29.612716,219.747 c 0,-0.31359 5.131021,-6.24182 5.402447,-6.24182 0.564042,0 0.07108,0.72959 -2.336269,3.45774 -1.497082,1.69658 -2.799415,3.08469 -2.894074,3.08469 -0.09466,0 -0.172104,-0.13527 -0.172104,-0.30061 z m 68.214396,-4.5452 c -2.581898,-2.78241 -2.928907,-3.24632 -2.501515,-3.34424 0.234532,-0.0537 5.676513,5.74629 5.676513,6.04999 0,0.56148 -0.6846,-0.0219 -3.174998,-2.70575 z m -72.186976,0.89784 c -0.08867,-0.23109 0.667483,-1.07294 2.819331,-3.13883 1.61728,-1.55268 3.003956,-2.84836 3.081503,-2.87929 0.07755,-0.0309 0.194508,0.0832 0.259913,0.25365 0.0854,0.22254 -0.647713,1.05201 -2.600756,2.94261 -3.23797,3.13443 -3.392916,3.25725 -3.559991,2.82186 z m 75.779474,-4.74762 c -1.911129,-1.67497 -3.046533,-2.79932 -2.937218,-2.90863 0.234194,-0.2342 0.39166,-0.11489 3.732918,2.8283 2.47184,2.17735 3.02759,2.81077 2.46614,2.81077 -0.0805,0 -1.54836,-1.2287 -3.26184,-2.73044 z m -79.377251,0.67624 c -0.06964,-0.0696 -0.126614,-0.22797 -0.126614,-0.35185 0,-0.32779 6.483876,-5.1574 6.724381,-5.00876 0.444142,0.2745 0.662119,0.089 -6.261025,5.32821 -0.115571,0.0875 -0.267105,0.10204 -0.336742,0.0324 z m 82.605101,-4.50401 c -3.61733,-2.44592 -3.68279,-2.49888 -3.48469,-2.81929 0.10346,-0.16733 1.18058,0.45493 3.65149,2.10951 3.21399,2.15216 3.73185,2.60458 3.1886,2.78566 -0.10511,0.035 -1.61504,-0.89911 -3.3554,-2.07588 z m -86.005036,-0.41717 c -0.209715,-0.34396 -0.38045,-0.66868 -0.37941,-0.72159 0.0017,-0.0847 9.474477,-6.18312 9.784898,-6.29932 0.210845,-0.0789 1.027999,1.33355 0.859519,1.4857 -0.291477,0.26323 -9.635212,6.16059 -9.760796,6.16059 -0.0676,0 -0.294495,-0.28142 -0.504211,-0.62538 z m 90.922566,-1.75581 c -0.42333,-0.24931 -2.65142,-1.55399 -4.95131,-2.89929 l -4.18162,-2.44599 0.39157,-0.76754 c 0.21537,-0.42215 0.45778,-0.74023 0.5387,-0.70684 0.1385,0.0571 9.87052,5.74352 9.9904,5.83736 0.0921,0.0721 -0.75705,1.43939 -0.89273,1.43742 -0.0689,-0.001 -0.47168,-0.2058 -0.89501,-0.45512 z m -93.287705,-2.74414 c -0.07385,-0.0738 -0.134267,-0.21162 -0.134267,-0.30616 0,-0.17969 6.460036,-3.34372 7.21251,-3.53258 0.278999,-0.07 0.470354,-0.009 0.539612,0.17115 0.07981,0.20797 -0.813324,0.71102 -3.484481,1.9626 -4.242318,1.98776 -3.964995,1.87336 -4.133374,1.70499 z m 93.103655,-4.293 c -2.00623,-0.8248 -3.67768,-1.58958 -3.71433,-1.69953 -0.20064,-0.60192 0.23962,-0.45177 7.60255,2.5929 0.13229,0.0547 0.24053,0.22008 0.24053,0.36751 0,0.14743 -0.10824,0.26145 -0.24053,0.25339 -0.1323,-0.008 -1.88199,-0.68948 -3.88822,-1.51427 z m -95.405915,-1.14807 c -0.08477,-0.32415 0.374425,-0.53065 3.86023,-1.73597 3.02446,-1.04579 3.993022,-1.31041 4.111732,-1.12337 0.155341,0.24476 0.211642,0.53331 0.104056,0.53331 -0.03142,0 -1.811858,0.60614 -3.956529,1.34697 -2.14467,0.74083 -3.927273,1.34697 -3.961339,1.34697 -0.03407,0 -0.105234,-0.16556 -0.15815,-0.36791 z m 97.259695,-3.58928 c -2.15082,-0.66115 -3.96346,-1.25497 -4.02808,-1.3196 -0.0646,-0.0646 -0.0246,-0.21041 0.0889,-0.32396 0.14699,-0.14698 1.34878,0.1422 4.1724,1.00399 3.571,1.0899 4.38336,1.46501 3.82163,1.76467 -0.0794,0.0423 -1.90408,-0.46395 -4.05489,-1.1251 z m -98.715394,-1.63553 c 0.05856,-0.39734 0.390304,-0.50867 4.00854,-1.3452 2.84191,-0.65705 3.98422,-0.85028 4.086069,-0.69121 0.232798,0.36359 0.169803,0.49679 -0.28569,0.60409 -0.238125,0.0561 -1.948295,0.45022 -3.800378,0.87582 -1.852084,0.42561 -3.526041,0.8224 -3.719904,0.88176 -0.279585,0.0856 -0.339277,0.0183 -0.288637,-0.32526 z m 99.453114,-3.42783 c -3.00606,-0.59311 -3.56845,-0.75775 -3.627,-1.0618 -0.0561,-0.29133 0.0168,-0.33899 0.3827,-0.25036 0.2486,0.0602 2.11888,0.428 4.15617,0.81729 2.68835,0.5137 3.70416,0.78094 3.70416,0.97449 0,0.37928 -0.55528,0.32159 -4.61603,-0.47962 z M 11.450175,186.45623 c -0.06975,-0.18177 -0.07928,-0.37803 -0.02118,-0.43614 0.146387,-0.14638 8.163473,-1.13628 8.277683,-1.02207 0.05082,0.0508 0.0924,0.23337 0.0924,0.40568 0,0.2633 -0.591044,0.38372 -3.704167,0.75466 -2.037292,0.24275 -3.88726,0.48344 -4.111041,0.53486 -0.267593,0.0615 -0.450288,-0.0196 -0.533695,-0.23699 z m 101.289815,-2.98144 c -2.06375,-0.19276 -3.77392,-0.35549 -3.80038,-0.36162 -0.0265,-0.006 -0.0481,-0.15355 -0.0481,-0.3276 0,-0.27444 0.17247,-0.30029 1.29887,-0.19464 0.71437,0.067 2.61937,0.2256 4.23333,0.35244 2.62051,0.20594 2.93447,0.26794 2.93447,0.57949 0,0.41011 0.32317,0.41348 -4.61818,-0.0481 z M 10.947563,180.55166 v -0.87735 l 1.779925,-0.12581 c 0.978958,-0.0692 3.598333,-0.0989 5.820833,-0.0661 l 4.040909,0.0597 0.05917,0.81781 0.05917,0.8178 -3.715231,9.6e-4 c -2.043377,4e-4 -4.689379,0.0569 -5.880004,0.12553 l -2.164773,0.12473 z m 53.237377,-0.6567 c -0.264886,-0.26488 -0.114273,-0.64141 0.256565,-0.64141 0.256565,0 0.384848,0.12828 0.384848,0.38484 0,0.37084 -0.37653,0.52146 -0.641413,0.25657 z m 41.62778,-1.50732 v -0.86591 h 5.86894 5.86894 v 0.86591 0.86591 h -5.86894 -5.86894 z m -91.344735,-2.39069 c -1.715017,-0.17488 -3.173069,-0.37282 -3.240115,-0.43987 -0.06705,-0.067 -0.0926,-0.24009 -0.05679,-0.38454 0.05413,-0.21832 0.763281,-0.1917 4.202237,0.15776 2.275417,0.23123 4.158769,0.42923 4.185227,0.44001 0.02646,0.0108 0.04811,0.14949 0.04811,0.30824 0,0.36489 -0.900197,0.35059 -5.138669,-0.0816 z m 94.231095,-2.61234 c 0,-0.15875 0.055,-0.28864 0.12223,-0.28864 0.0672,0 1.89715,-0.2246 4.0665,-0.49912 3.21504,-0.40684 3.97317,-0.45234 4.10064,-0.2461 0.086,0.13916 0.12364,0.28574 0.0836,0.32575 -0.0969,0.0968 -7.16785,0.9945 -7.84384,0.99576 -0.34253,6.4e-4 -0.52917,-0.10082 -0.52917,-0.28765 z m -92.997689,-2.47743 c -2.094979,-0.44306 -3.805149,-0.86786 -3.800379,-0.94399 0.0048,-0.0761 0.0087,-0.25673 0.0087,-0.40131 0,-0.22027 0.179305,-0.22299 1.10644,-0.0168 0.608542,0.13537 2.473986,0.52698 4.145433,0.87026 2.467469,0.50676 3.027967,0.68139 2.980366,0.92856 -0.03224,0.16744 -0.187519,0.31891 -0.345054,0.33661 -0.157535,0.0177 -2.0005,-0.33031 -4.095478,-0.77337 z m 92.095739,-1.97287 c -0.0592,-0.15438 -0.0692,-0.31924 -0.0221,-0.36635 0.11173,-0.11173 7.59811,-1.82199 7.97548,-1.82199 0.16677,0 0.26257,0.13639 0.22665,0.32266 -0.0475,0.24646 -0.69847,0.46705 -2.75615,0.934 -1.48167,0.33623 -3.28395,0.74656 -4.00508,0.91185 -1.14382,0.26217 -1.32488,0.2647 -1.41884,0.0198 z m -90.631901,-3.0413 c -2.136534,-0.64212 -3.941233,-1.22594 -4.010442,-1.29738 -0.06921,-0.0714 -0.05295,-0.25115 0.03612,-0.39936 0.132963,-0.22124 0.868125,-0.0625 4.106653,0.88682 2.169584,0.63597 3.979948,1.18286 4.023031,1.21532 0.04308,0.0325 -2.11e-4,0.21721 -0.09621,0.41056 -0.16317,0.32862 -0.427713,0.27544 -4.059152,-0.81596 z m 89.341271,-1.3764 c -0.0691,-0.17998 -0.10188,-0.34295 -0.0729,-0.36215 0.0289,-0.0192 1.84342,-0.64766 4.03216,-1.39657 3.33745,-1.14197 3.99793,-1.31373 4.09355,-1.06456 0.0627,0.16342 0.0856,0.32548 0.051,0.36015 -0.0347,0.0347 -1.70359,0.62253 -3.7087,1.30637 -2.00511,0.68383 -3.78602,1.29747 -3.95757,1.36366 -0.19585,0.0756 -0.35864,-0.001 -0.43749,-0.2069 z m -87.765755,-3.51615 c -3.436046,-1.40841 -4.170696,-1.86257 -3.591703,-2.22041 0.100032,-0.0618 1.883545,0.59379 3.96336,1.45692 2.749124,1.14089 3.766163,1.64825 3.725368,1.85844 -0.03086,0.15902 -0.142706,0.31489 -0.24854,0.34638 -0.105833,0.0315 -1.837651,-0.61711 -3.848485,-1.44133 z m 86.029695,-0.92067 c -0.0667,-0.1739 -0.0976,-0.33866 -0.0687,-0.36614 0.0289,-0.0275 1.71909,-0.84307 3.75586,-1.81242 3.42158,-1.62842 4.08996,-1.8463 4.08996,-1.33322 0,0.14207 -7.32201,3.82796 -7.60423,3.82796 -0.0284,0 -0.10617,-0.14228 -0.1729,-0.31618 z m -82.566058,-2.6882 c -2.645834,-1.4342 -4.882918,-2.67715 -4.971299,-2.7621 -0.127021,-0.12209 0.263133,-1.18174 0.559211,-1.5188 0.05035,-0.0573 10.031109,5.26667 10.255928,5.47077 0.111065,0.10083 -0.629081,1.29566 -0.842574,1.36017 -0.104862,0.0317 -2.355433,-1.11582 -5.001266,-2.55004 z m 77.499804,0.35656 -0.413135,-0.73507 4.174849,-2.2951 c 2.29616,-1.26231 4.62006,-2.53746 5.16421,-2.83368 l 0.98936,-0.53857 0.41591,0.70492 c 0.22876,0.38771 0.34638,0.77162 0.2614,0.85313 -0.17031,0.16335 -9.51227,5.32342 -9.92316,5.48109 -0.15423,0.0592 -0.42083,-0.19438 -0.669434,-0.63672 z m -76.054445,-5.72047 c -1.850886,-1.21109 -3.392446,-2.28358 -3.425688,-2.3833 -0.212137,-0.63641 0.765074,-0.17248 3.801893,1.80495 2.389531,1.55594 3.413699,2.3273 3.341138,2.51639 -0.05755,0.14997 -0.160312,0.27071 -0.228365,0.26831 -0.06805,-0.002 -1.638092,-0.99526 -3.488978,-2.20635 z m 76.091252,-0.11514 c -0.160398,-0.25953 -0.396219,-0.058 3.341717,-2.85611 2.58739,-1.93686 3.1884,-2.30867 3.42052,-2.11602 0.23449,0.1946 -0.27454,0.64712 -3.04272,2.70488 -1.82837,1.35915 -3.38414,2.47236 -3.45727,2.47381 -0.07313,0.002 -0.191139,-0.0915 -0.262247,-0.20656 z m -73.094955,-4.04506 c -2.551542,-2.14969 -3.166802,-2.75884 -2.995263,-2.96553 0.173328,-0.20885 0.837118,0.25901 3.367361,2.37339 1.733314,1.44843 3.156062,2.73664 3.161665,2.86268 0.02718,0.61152 -0.563127,0.23223 -3.533763,-2.27054 z m 70.053449,0.65718 c -0.06772,-0.0677 -0.123133,-0.18946 -0.123133,-0.27053 0,-0.0811 1.357334,-1.41093 3.016299,-2.95526 2.193087,-2.04156 3.072737,-2.74908 3.223107,-2.59242 0.30622,0.31902 -5.80349,6.13099 -6.116273,5.81821 z m -66.584635,-4.40518 c -2.252955,-2.35011 -2.814224,-3.0378 -2.626352,-3.21792 0.187425,-0.17969 0.857446,0.41257 3.107917,2.7472 2.666284,2.766 3.038435,3.26014 2.564121,3.40462 -0.09922,0.0302 -1.469777,-1.29003 -3.045686,-2.9339 z m 63.099782,1.0842 c -0.151964,-0.24588 5.267433,-6.58582 5.50439,-6.43937 0.09153,0.0566 0.166421,0.18755 0.166421,0.29106 0,0.20501 -5.13073,6.19845 -5.387648,6.29356 -0.08656,0.032 -0.213987,-0.0333 -0.283163,-0.14525 z m -54.299969,-5.90651 c -1.676488,-2.71495 -3.048161,-4.97119 -3.048161,-5.01387 0,-0.12853 1.430722,-0.90481 1.500882,-0.81435 0.716149,0.9234 5.919414,9.68267 5.852314,9.85189 -0.05191,0.1309 -0.355937,0.38979 -0.675625,0.5753 l -0.58125,0.3373 z m -4.846772,1.46616 c -2.263669,-2.92635 -2.692802,-3.65069 -2.162831,-3.65069 0.210302,0 5.115987,6.31099 5.115987,6.58153 0,0.68454 -0.673673,0.016 -2.953156,-2.93084 z m 50.097097,2.12385 c -0.3175,-0.20928 -0.577272,-0.46175 -0.577272,-0.56106 0,-0.0993 1.210737,-2.43014 2.690526,-5.17964 l 2.690525,-4.9991 0.725005,0.36987 c 0.398753,0.20343 0.725004,0.43048 0.725004,0.50456 0,0.22647 -5.440058,10.24849 -5.56225,10.24713 -0.06284,-7.7e-4 -0.374038,-0.17249 -0.691538,-0.38176 z m 5.344361,-0.54245 c -0.165562,-0.10518 0.480643,-1.15186 2.166279,-3.5088 2.125068,-2.97137 3.000077,-3.93126 2.826137,-3.10029 -0.04761,0.22747 -4.609436,6.76947 -4.715177,6.76193 -0.02271,-0.002 -0.14747,-0.0704 -0.277239,-0.15284 z m -46.623232,-6.84405 c -0.948286,-1.96467 -1.746656,-3.67778 -1.774157,-3.80691 -0.0275,-0.12914 0.07988,-0.2592 0.238633,-0.28903 0.202878,-0.0381 0.788158,0.98757 1.969881,3.4522 1.836955,3.83121 1.897396,3.99354 1.536094,4.12574 -0.161975,0.0593 -0.836568,-1.13282 -1.970451,-3.482 z m 38.385519,2.37034 c -0.185237,-0.29972 2.992062,-7.68566 3.306233,-7.68566 0.143333,0 0.261745,0.065 0.263142,0.14432 0.0051,0.28748 -3.181042,7.73811 -3.310499,7.74155 -0.07313,0.002 -0.189625,-0.0882 -0.258876,-0.20021 z m -18.644559,-0.21807 c -0.0435,-0.13842 -0.122047,-2.78446 -0.174552,-5.88009 l -0.09547,-5.62841 h 0.82241 0.822412 l 0.121683,2.06856 c 0.06693,1.13771 0.133616,3.75709 0.148196,5.82084 l 0.02651,3.75227 -0.796056,0.0593 c -0.529697,0.0394 -0.822515,-0.025 -0.875139,-0.19243 z m -15.084474,-4.26542 c -0.759772,-2.05703 -1.381404,-3.82624 -1.381404,-3.93158 0,-0.10535 0.119401,-0.23735 0.265334,-0.29335 0.195016,-0.0748 0.62523,0.87589 1.623325,3.58737 1.593033,4.3277 1.564869,4.22451 1.176457,4.31061 -0.233249,0.0517 -0.617884,-0.78738 -1.683712,-3.67305 z m 29.304206,2.94561 c -0.06874,-0.11123 0.424048,-1.97289 1.095083,-4.13703 1.013096,-3.26731 1.280683,-3.93482 1.577396,-3.9349 0.248637,-6e-5 0.321362,0.0936 0.239085,0.30805 -0.06503,0.16947 -0.654212,2.03118 -1.309285,4.13712 -0.655074,2.10594 -1.255451,3.82898 -1.33417,3.82898 -0.07872,0 -0.199369,-0.091 -0.268109,-0.20222 z m -24.034772,-2.66148 c -0.289115,-1.22955 -0.726238,-3.08582 -0.971384,-4.12506 -0.378127,-1.60298 -0.403593,-1.90569 -0.167925,-1.99612 0.152789,-0.0586 0.315797,-0.0686 0.362244,-0.0221 0.04645,0.0464 0.478786,1.76731 0.960757,3.82415 0.481971,2.05683 0.918915,3.8805 0.970985,4.05259 0.05916,0.19553 -0.04105,0.34838 -0.267172,0.40751 -0.318743,0.0834 -0.424455,-0.17165 -0.887505,-2.14092 z m 19.342057,1.52724 c -0.229582,-0.14261 -0.140268,-0.79215 0.561394,-4.08285 0.458924,-2.15229 0.885573,-3.9746 0.948109,-4.04957 0.06253,-0.075 0.214766,-0.0738 0.338295,0.002 0.164301,0.10155 -0.0041,1.19712 -0.627118,4.08101 -1.009323,4.67168 -0.884519,4.25772 -1.22068,4.04891 z m -14.155022,-0.82831 c -0.13164,-0.74931 -1.061788,-7.49078 -1.06198,-7.69697 -7.5e-5,-0.0794 0.153639,-0.14432 0.341584,-0.14432 0.29873,0 0.408056,0.49018 0.869053,3.89659 0.290033,2.14313 0.525918,4.04813 0.52419,4.23334 -0.0056,0.60381 -0.557662,0.367 -0.672847,-0.28864 z m 9.23127,-0.27493 c 0.04992,-0.29858 0.223483,-1.88503 0.385701,-3.52545 0.40278,-4.07313 0.466019,-4.42576 0.793698,-4.42576 0.220476,0 0.253625,0.19005 0.159429,0.91402 -0.06541,0.50271 -0.26353,2.38493 -0.440276,4.18272 -0.274959,2.79678 -0.369576,3.278 -0.655335,3.33303 -0.269075,0.0518 -0.316342,-0.0412 -0.243217,-0.47856 z"
       style="fill:#0b0b0b;stroke-width:0.19242425" />
    <rect
       style="color:#000000;clip-rule:nonzero;display:inline;overflow:visible;visibility:visible;opacity:1;isolation:auto;mix-blend-mode:normal;color-interpolation:sRGB;color-interpolation-filters:linearRGB;solid-color:#000000;solid-opacity:1;vector-effect:none;fill:#ffffff;fill-opacity:1;fill-rule:nonzero;stroke:none;stroke-width:2;stroke-linecap:butt;stroke-linejoin:round;stroke-miterlimit:4;stroke-dasharray:none;stroke-dashoffset:0;stroke-opacity:1;color-rendering:auto;image-rendering:auto;shape-rendering:auto;text-rendering:auto;enable-background:accumulate"
       id="rect876"
       width="9.0270271"
       height="5.1917114"
       x="61.255909"
       y="177.68439"
       ry="2.5958557"
       rx="0" />
    <rect
       style="color:#000000;clip-rule:nonzero;display:inline;overflow:visible;visibility:visible;opacity:1;isolation:auto;mix-blend-mode:normal;color-interpolation:sRGB;color-interpolation-filters:linearRGB;solid-color:#000000;solid-opacity:1;vector-effect:none;fill:#005500;fill-opacity:0;fill-rule:nonzero;stroke:none;stroke-width:2;stroke-linecap:butt;stroke-linejoin:round;stroke-miterlimit:4;stroke-dasharray:none;stroke-dashoffset:0;stroke-opacity:1;color-rendering:auto;image-rendering:auto;shape-rendering:auto;text-rendering:auto;enable-background:accumulate"
       id="rect874"
       width="9.0270281"
       height="5.1917105"
       x="61.255909"
       y="177.68439"
       ry="2.5958552" />
  </g>
  <g
     inkscape:groupmode="layer"
     id="layer2"
     inkscape:label="Hands"
     style="display:inline">
    <g
       transform="translate(-6.9066521,-121.91112)"
       style="display:inline"
       id="g887">
      <rect
         ry="5.7018294"
         y="140.08807"
         x="63.396294"
         height="39.912804"
         width="2.4752662"
         id="rect855"
         style="color:#000000;clip-rule:nonzero;display:inline;overflow:visible;visibility:visible;opacity:1;isolation:auto;mix-blend-mode:normal;color-interpolation:sRGB;color-interpolation-filters:linearRGB;solid-color:#000000;solid-opacity:1;vector-effect:none;fill:#000000;fill-opacity:1;fill-rule:nonzero;stroke:none;stroke-width:1.20697641;stroke-linecap:butt;stroke-linejoin:round;stroke-miterlimit:4;stroke-dasharray:none;stroke-dashoffset:0;stroke-opacity:1;color-rendering:auto;image-rendering:auto;shape-rendering:auto;text-rendering:auto;enable-background:accumulate" />
      <rect
         ry="5.7018299"
         y="179.27591"
         x="63.396294"
         height="39.912804"
         width="2.4752662"
         id="rect855-6"
         style="color:#000000;clip-rule:nonzero;display:inline;overflow:visible;visibility:visible;opacity:1;isolation:auto;mix-blend-mode:normal;color-interpolation:sRGB;color-interpolation-filters:linearRGB;solid-color:#000000;solid-opacity:1;vector-effect:none;fill:#005500;fill-opacity:0;fill-rule:nonzero;stroke:none;stroke-width:1.20697641;stroke-linecap:butt;stroke-linejoin:round;stroke-miterlimit:4;stroke-dasharray:none;stroke-dashoffset:0;stroke-opacity:1;color-rendering:auto;image-rendering:auto;shape-rendering:auto;text-rendering:auto;enable-background:accumulate" />
      <ellipse
         ry="0.36248431"
         rx="0.31571212"
         cy="179.6384"
         cx="64.633926"
         id="path872"
         style="color:#000000;clip-rule:nonzero;display:inline;overflow:visible;visibility:visible;opacity:1;isolation:auto;mix-blend-mode:normal;color-interpolation:sRGB;color-interpolation-filters:linearRGB;solid-color:#000000;solid-opacity:1;vector-effect:none;fill:#005500;fill-opacity:0;fill-rule:nonzero;stroke:none;stroke-width:2;stroke-linecap:butt;stroke-linejoin:round;stroke-miterlimit:4;stroke-dasharray:none;stroke-dashoffset:0;stroke-opacity:1;color-rendering:auto;image-rendering:auto;shape-rendering:auto;text-rendering:auto;enable-background:accumulate" />
    </g>
  </g>
</svg>
