<?xml version="1.0" encoding="UTF-8" standalone="no"?>
<!DOCTYPE svg PUBLIC "-//W3C//DTD SVG 1.1//EN" "http://www.w3.org/Graphics/SVG/1.1/DTD/svg11.dtd">
<!-- Generated by graphviz version 2.40.1 (20161225.0304)
 -->
<!-- Title: G Pages: 1 -->
<svg width="1064pt" height="78pt" viewBox="0.00 0.00 1063.84 78.00" xmlns="http://www.w3.org/2000/svg" xmlns:xlink="http://www.w3.org/1999/xlink">
<g id="graph0" class="graph" transform="scale(1 1) rotate(0) translate(4 74)">
<title>G</title>
<polygon fill="#ffffff" stroke="transparent" points="-4,4 -4,-74 1059.8399,-74 1059.8399,4 -4,4"/>
<!-- Ready -->
<g id="node1" class="node">
<title>Ready</title>
<ellipse fill="none" stroke="#000000" cx="35.7071" cy="-22" rx="35.9154" ry="18"/>
<text text-anchor="middle" x="35.7071" y="-17.8" font-family="Times,serif" font-size="14.00" fill="#000000">Ready</text>
</g>
<!-- StartTrial -->
<g id="node2" class="node">
<title>StartTrial</title>
<ellipse fill="none" stroke="#000000" cx="200.1665" cy="-22" rx="48.0839" ry="18"/>
<text text-anchor="middle" x="200.1665" y="-17.8" font-family="Times,serif" font-size="14.00" fill="#000000">StartTrial</text>
</g>
<!-- Ready&#45;&gt;StartTrial -->
<g id="edge1" class="edge">
<title>Ready-&gt;StartTrial</title>
<path fill="none" stroke="#000000" d="M71.7984,-22C92.3073,-22 118.4775,-22 141.8318,-22"/>
<polygon fill="#000000" stroke="#000000" points="141.9873,-25.5001 151.9873,-22 141.9873,-18.5001 141.9873,-25.5001"/>
<text text-anchor="middle" x="111.7694" y="-26.2" font-family="Times,serif" font-size="14.00" fill="#000000">on click</text>
</g>
<!-- GetResponse -->
<g id="node3" class="node">
<title>GetResponse</title>
<ellipse fill="none" stroke="#000000" cx="390.9073" cy="-52" rx="61.977" ry="18"/>
<text text-anchor="middle" x="390.9073" y="-47.8" font-family="Times,serif" font-size="14.00" fill="#000000">GetResponse</text>
</g>
<!-- StartTrial&#45;&gt;GetResponse -->
<g id="edge2" class="edge">
<title>StartTrial-&gt;GetResponse</title>
<path fill="none" stroke="#000000" d="M244.8868,-29.0337C269.101,-32.8421 299.452,-37.6158 326.2014,-41.8229"/>
<polygon fill="#000000" stroke="#000000" points="325.8343,-45.3082 336.2567,-43.4045 326.9219,-38.3932 325.8343,-45.3082"/>
<text text-anchor="middle" x="288.5636" y="-42.2" font-family="Times,serif" font-size="14.00" fill="#000000">on click</text>
</g>
<!-- ShowFeedback -->
<g id="node4" class="node">
<title>ShowFeedback</title>
<ellipse fill="none" stroke="#000000" cx="631.6497" cy="-52" rx="70.0674" ry="18"/>
<text text-anchor="middle" x="631.6497" y="-47.8" font-family="Times,serif" font-size="14.00" fill="#000000">ShowFeedback</text>
</g>
<!-- GetResponse&#45;&gt;ShowFeedback -->
<g id="edge3" class="edge">
<title>GetResponse-&gt;ShowFeedback</title>
<path fill="none" stroke="#000000" d="M452.9045,-52C482.8239,-52 519.0919,-52 551.1188,-52"/>
<polygon fill="#000000" stroke="#000000" points="551.3547,-55.5001 561.3547,-52 551.3546,-48.5001 551.3547,-55.5001"/>
</g>
<!-- LogData -->
<g id="node5" class="node">
<title>LogData</title>
<ellipse fill="none" stroke="#000000" cx="783.5047" cy="-18" rx="44.6434" ry="18"/>
<text text-anchor="middle" x="783.5047" y="-13.8" font-family="Times,serif" font-size="14.00" fill="#000000">LogData</text>
</g>
<!-- ShowFeedback&#45;&gt;LogData -->
<g id="edge4" class="edge">
<title>ShowFeedback-&gt;LogData</title>
<path fill="none" stroke="#000000" d="M684.7612,-40.1084C700.7577,-36.5269 718.2437,-32.6118 733.9964,-29.0848"/>
<polygon fill="#000000" stroke="#000000" points="735.0712,-32.4309 744.0648,-26.8305 733.5417,-25.6 735.0712,-32.4309"/>
</g>
<!-- LogData&#45;&gt;StartTrial -->
<g id="edge6" class="edge">
<title>LogData-&gt;StartTrial</title>
<path fill="none" stroke="#000000" d="M738.4452,-18.309C633.917,-19.0257 374.9952,-20.8012 258.546,-21.5997"/>
<polygon fill="#000000" stroke="#000000" points="258.3756,-18.1007 248.3998,-21.6693 258.4236,-25.1005 258.3756,-18.1007"/>
<text text-anchor="middle" x="507.2559" y="-25.2" font-family="Times,serif" font-size="14.00" fill="#000000">Not Finished</text>
</g>
<!-- EndExperiment -->
<g id="node6" class="node">
<title>EndExperiment</title>
<ellipse fill="none" stroke="#000000" cx="984.1944" cy="-18" rx="71.7911" ry="18"/>
<text text-anchor="middle" x="984.1944" y="-13.8" font-family="Times,serif" font-size="14.00" fill="#000000">EndExperiment</text>
</g>
<!-- LogData&#45;&gt;EndExperiment -->
<g id="edge5" class="edge">
<title>LogData-&gt;EndExperiment</title>
<path fill="none" stroke="#000000" d="M828.5434,-18C850.2798,-18 877.0514,-18 902.2253,-18"/>
<polygon fill="#000000" stroke="#000000" points="902.5223,-21.5001 912.5223,-18 902.5222,-14.5001 902.5223,-21.5001"/>
<text text-anchor="middle" x="870.4375" y="-22.2" font-family="Times,serif" font-size="14.00" fill="#000000">Finished</text>
</g>
</g>
</svg>