<?xml version="1.0" encoding="UTF-8" standalone="no"?>
<!DOCTYPE svg PUBLIC "-//W3C//DTD SVG 1.1//EN"
 "http://www.w3.org/Graphics/SVG/1.1/DTD/svg11.dtd">
<!-- Generated by graphviz version 2.40.1 (20161225.0304)
 -->
<!-- Title: G Pages: 1 -->
<svg width="2238pt" height="313pt"
 viewBox="0.00 0.00 2237.87 313.00" xmlns="http://www.w3.org/2000/svg" xmlns:xlink="http://www.w3.org/1999/xlink">
<g id="graph0" class="graph" transform="scale(1 1) rotate(0) translate(4 309)">
<title>G</title>
<polygon fill="#ffffff" stroke="transparent" points="-4,4 -4,-309 2233.8685,-309 2233.8685,4 -4,4"/>
<!-- Ready -->
<g id="node1" class="node">
<title>Ready</title>
<ellipse fill="none" stroke="#000000" cx="33.1471" cy="-161" rx="33.2948" ry="18"/>
<text text-anchor="middle" x="33.1471" y="-157.3" font-family="Times,serif" font-size="14.00" fill="#000000">Ready</text>
</g>
<!-- StartExperiment -->
<g id="node2" class="node">
<title>StartExperiment</title>
<ellipse fill="none" stroke="#000000" cx="172.188" cy="-161" rx="68.7879" ry="18"/>
<text text-anchor="middle" x="172.188" y="-157.3" font-family="Times,serif" font-size="14.00" fill="#000000">StartExperiment</text>
</g>
<!-- Ready&#45;&gt;StartExperiment -->
<g id="edge1" class="edge">
<title>Ready&#45;&gt;StartExperiment</title>
<path fill="none" stroke="#000000" d="M66.4508,-161C74.5928,-161 83.6542,-161 92.9522,-161"/>
<polygon fill="#000000" stroke="#000000" points="93.102,-164.5001 103.1019,-161 93.1019,-157.5001 93.102,-164.5001"/>
</g>
<!-- StartDemoPhase -->
<g id="node3" class="node">
<title>StartDemoPhase</title>
<ellipse fill="none" stroke="#000000" cx="347.6257" cy="-161" rx="69.5877" ry="18"/>
<text text-anchor="middle" x="347.6257" y="-157.3" font-family="Times,serif" font-size="14.00" fill="#000000">StartDemoPhase</text>
</g>
<!-- StartExperiment&#45;&gt;StartDemoPhase -->
<g id="edge2" class="edge">
<title>StartExperiment&#45;&gt;StartDemoPhase</title>
<path fill="none" stroke="#000000" d="M241.2738,-161C250.0519,-161 259.0911,-161 268.0173,-161"/>
<polygon fill="#000000" stroke="#000000" points="268.0273,-164.5001 278.0273,-161 268.0272,-157.5001 268.0273,-164.5001"/>
</g>
<!-- PrepareTrial -->
<g id="node4" class="node">
<title>PrepareTrial</title>
<ellipse fill="none" stroke="#000000" cx="508.7647" cy="-161" rx="54.6905" ry="18"/>
<text text-anchor="middle" x="508.7647" y="-157.3" font-family="Times,serif" font-size="14.00" fill="#000000">PrepareTrial</text>
</g>
<!-- StartDemoPhase&#45;&gt;PrepareTrial -->
<g id="edge3" class="edge">
<title>StartDemoPhase&#45;&gt;PrepareTrial</title>
<path fill="none" stroke="#000000" d="M417.3664,-161C426.1699,-161 435.1491,-161 443.8732,-161"/>
<polygon fill="#000000" stroke="#000000" points="443.9715,-164.5001 453.9715,-161 443.9715,-157.5001 443.9715,-164.5001"/>
</g>
<!-- StartTrial -->
<g id="node5" class="node">
<title>StartTrial</title>
<ellipse fill="none" stroke="#000000" cx="644.5559" cy="-161" rx="44.393" ry="18"/>
<text text-anchor="middle" x="644.5559" y="-157.3" font-family="Times,serif" font-size="14.00" fill="#000000">StartTrial</text>
</g>
<!-- PrepareTrial&#45;&gt;StartTrial -->
<g id="edge4" class="edge">
<title>PrepareTrial&#45;&gt;StartTrial</title>
<path fill="none" stroke="#000000" d="M563.6048,-161C572.3871,-161 581.4722,-161 590.2422,-161"/>
<polygon fill="#000000" stroke="#000000" points="590.3556,-164.5001 600.3555,-161 590.3555,-157.5001 590.3556,-164.5001"/>
</g>
<!-- HandleKey -->
<g id="node6" class="node">
<title>HandleKey</title>
<ellipse fill="none" stroke="#000000" cx="776.4475" cy="-161" rx="50.8918" ry="18"/>
<text text-anchor="middle" x="776.4475" y="-157.3" font-family="Times,serif" font-size="14.00" fill="#000000">HandleKey</text>
</g>
<!-- StartTrial&#45;&gt;HandleKey -->
<g id="edge5" class="edge">
<title>StartTrial&#45;&gt;HandleKey</title>
<path fill="none" stroke="#000000" d="M688.8408,-161C697.4317,-161 706.5744,-161 715.5894,-161"/>
<polygon fill="#000000" stroke="#000000" points="715.6774,-164.5001 725.6773,-161 715.6773,-157.5001 715.6774,-164.5001"/>
</g>
<!-- NextStimulus -->
<g id="node7" class="node">
<title>NextStimulus</title>
<ellipse fill="none" stroke="#000000" cx="1025.9377" cy="-176" rx="59.5901" ry="18"/>
<text text-anchor="middle" x="1025.9377" y="-172.3" font-family="Times,serif" font-size="14.00" fill="#000000">NextStimulus</text>
</g>
<!-- HandleKey&#45;&gt;NextStimulus -->
<g id="edge6" class="edge">
<title>HandleKey&#45;&gt;NextStimulus</title>
<path fill="none" stroke="#000000" d="M827.1917,-162.789C861.3898,-164.136 907.5052,-166.2263 948.143,-169 951.5612,-169.2333 955.0625,-169.4888 958.5971,-169.7597"/>
<polygon fill="#000000" stroke="#000000" points="958.3586,-173.2517 968.6054,-170.5587 958.9157,-166.2739 958.3586,-173.2517"/>
</g>
<!-- NextStimulus&#45;&gt;HandleKey -->
<g id="edge8" class="edge">
<title>NextStimulus&#45;&gt;HandleKey</title>
<path fill="none" stroke="#000000" d="M966.8891,-172.9938C931.5575,-171.1303 885.7693,-168.6018 845.143,-166 842.2902,-165.8173 839.3711,-165.6251 836.423,-165.4268"/>
<polygon fill="#000000" stroke="#000000" points="836.5586,-161.928 826.3421,-164.7339 836.0785,-168.9115 836.5586,-161.928"/>
<text text-anchor="middle" x="896.643" y="-174.8" font-family="Times,serif" font-size="14.00" fill="#000000">Sequence not done</text>
</g>
<!-- EndTrial -->
<g id="node8" class="node">
<title>EndTrial</title>
<ellipse fill="none" stroke="#000000" cx="1245.9787" cy="-176" rx="42.4939" ry="18"/>
<text text-anchor="middle" x="1245.9787" y="-172.3" font-family="Times,serif" font-size="14.00" fill="#000000">EndTrial</text>
</g>
<!-- NextStimulus&#45;&gt;EndTrial -->
<g id="edge7" class="edge">
<title>NextStimulus&#45;&gt;EndTrial</title>
<path fill="none" stroke="#000000" d="M1085.7742,-176C1119.4208,-176 1161.0368,-176 1193.4199,-176"/>
<polygon fill="#000000" stroke="#000000" points="1193.5877,-179.5001 1203.5877,-176 1193.5876,-172.5001 1193.5877,-179.5001"/>
<text text-anchor="middle" x="1144.7324" y="-179.8" font-family="Times,serif" font-size="14.00" fill="#000000">Sequence done</text>
</g>
<!-- LogData -->
<g id="node9" class="node">
<title>LogData</title>
<ellipse fill="none" stroke="#000000" cx="1366.8212" cy="-176" rx="41.6928" ry="18"/>
<text text-anchor="middle" x="1366.8212" y="-172.3" font-family="Times,serif" font-size="14.00" fill="#000000">LogData</text>
</g>
<!-- EndTrial&#45;&gt;LogData -->
<g id="edge9" class="edge">
<title>EndTrial&#45;&gt;LogData</title>
<path fill="none" stroke="#000000" d="M1288.2435,-176C1296.8533,-176 1306.0053,-176 1314.9061,-176"/>
<polygon fill="#000000" stroke="#000000" points="1315.1918,-179.5001 1325.1918,-176 1315.1917,-172.5001 1315.1918,-179.5001"/>
</g>
<!-- _DEMO_PHASE_ -->
<g id="node10" class="node">
<title>_DEMO_PHASE_</title>
<ellipse fill="none" stroke="#000000" cx="1546.1586" cy="-287" rx="77.9862" ry="18"/>
<text text-anchor="middle" x="1546.1586" y="-283.3" font-family="Times,serif" font-size="14.00" fill="#000000">_DEMO_PHASE_</text>
</g>
<!-- LogData&#45;&gt;_DEMO_PHASE_ -->
<g id="edge10" class="edge">
<title>LogData&#45;&gt;_DEMO_PHASE_</title>
<path fill="none" stroke="#000000" d="M1391.0075,-190.97C1421.6798,-209.9544 1474.8284,-242.8505 1510.2443,-264.7711"/>
<polygon fill="#000000" stroke="#000000" points="1508.4968,-267.8055 1518.8419,-270.0924 1512.1808,-261.8534 1508.4968,-267.8055"/>
</g>
<!-- _CALIBRATE_PHASE_ -->
<g id="node11" class="node">
<title>_CALIBRATE_PHASE_</title>
<ellipse fill="none" stroke="#000000" cx="1546.1586" cy="-97" rx="100.9827" ry="18"/>
<text text-anchor="middle" x="1546.1586" y="-93.3" font-family="Times,serif" font-size="14.00" fill="#000000">_CALIBRATE_PHASE_</text>
</g>
<!-- LogData&#45;&gt;_CALIBRATE_PHASE_ -->
<g id="edge11" class="edge">
<title>LogData&#45;&gt;_CALIBRATE_PHASE_</title>
<path fill="none" stroke="#000000" d="M1386.7737,-160.1655C1402.0605,-148.7075 1424.0847,-133.608 1445.4175,-124 1453.9336,-120.1645 1463.1079,-116.7784 1472.3293,-113.8164"/>
<polygon fill="#000000" stroke="#000000" points="1473.39,-117.1521 1481.9304,-110.8822 1471.3441,-110.4578 1473.39,-117.1521"/>
</g>
<!-- _MAIN_PHASE_ -->
<g id="node12" class="node">
<title>_MAIN_PHASE_</title>
<ellipse fill="none" stroke="#000000" cx="1546.1586" cy="-151" rx="75.2868" ry="18"/>
<text text-anchor="middle" x="1546.1586" y="-147.3" font-family="Times,serif" font-size="14.00" fill="#000000">_MAIN_PHASE_</text>
</g>
<!-- LogData&#45;&gt;_MAIN_PHASE_ -->
<g id="edge12" class="edge">
<title>LogData&#45;&gt;_MAIN_PHASE_</title>
<path fill="none" stroke="#000000" d="M1406.622,-170.4517C1425.5037,-167.8195 1448.7109,-164.5844 1470.7405,-161.5134"/>
<polygon fill="#000000" stroke="#000000" points="1471.3386,-164.964 1480.7596,-160.1168 1470.3721,-158.031 1471.3386,-164.964"/>
</g>
<!-- _DEMO_PHASE_&#45;&gt;PrepareTrial -->
<g id="edge13" class="edge">
<title>_DEMO_PHASE_&#45;&gt;PrepareTrial</title>
<path fill="none" stroke="#000000" d="M1468.0352,-287C1436.5873,-287 1399.98,-287 1366.8212,-287 644.5559,-287 644.5559,-287 644.5559,-287 586.5944,-287 542.9416,-224.5506 522.1781,-187.5818"/>
<polygon fill="#000000" stroke="#000000" points="525.2479,-185.9005 517.3976,-178.7855 519.0975,-189.2431 525.2479,-185.9005"/>
<text text-anchor="middle" x="1025.9377" y="-290.8" font-family="Times,serif" font-size="14.00" fill="#000000">Error</text>
</g>
<!-- PrepareCalibration -->
<g id="node13" class="node">
<title>PrepareCalibration</title>
<ellipse fill="none" stroke="#000000" cx="1807.2428" cy="-255" rx="77.1866" ry="18"/>
<text text-anchor="middle" x="1807.2428" y="-251.3" font-family="Times,serif" font-size="14.00" fill="#000000">PrepareCalibration</text>
</g>
<!-- _DEMO_PHASE_&#45;&gt;PrepareCalibration -->
<g id="edge14" class="edge">
<title>_DEMO_PHASE_&#45;&gt;PrepareCalibration</title>
<path fill="none" stroke="#000000" d="M1615.0969,-278.5505C1649.8966,-274.2853 1692.2748,-269.0911 1728.369,-264.6672"/>
<polygon fill="#000000" stroke="#000000" points="1728.8713,-268.1319 1738.3712,-263.4413 1728.0197,-261.1839 1728.8713,-268.1319"/>
<text text-anchor="middle" x="1688.3997" y="-274.8" font-family="Times,serif" font-size="14.00" fill="#000000">Correct</text>
</g>
<!-- _CALIBRATE_PHASE_&#45;&gt;PrepareTrial -->
<g id="edge15" class="edge">
<title>_CALIBRATE_PHASE_&#45;&gt;PrepareTrial</title>
<path fill="none" stroke="#000000" d="M1446.0921,-99.2661C1420.2682,-99.6884 1392.5112,-100 1366.8212,-100 644.5559,-100 644.5559,-100 644.5559,-100 605.5472,-100 565.3327,-121.2053 538.8949,-138.6106"/>
<polygon fill="#000000" stroke="#000000" points="536.7814,-135.8152 530.4788,-144.3315 540.7166,-141.6043 536.7814,-135.8152"/>
<text text-anchor="middle" x="1025.9377" y="-103.8" font-family="Times,serif" font-size="14.00" fill="#000000">Not finished</text>
</g>
<!-- PrepareMainPhase -->
<g id="node14" class="node">
<title>PrepareMainPhase</title>
<ellipse fill="none" stroke="#000000" cx="1807.2428" cy="-46" rx="77.1866" ry="18"/>
<text text-anchor="middle" x="1807.2428" y="-42.3" font-family="Times,serif" font-size="14.00" fill="#000000">PrepareMainPhase</text>
</g>
<!-- _CALIBRATE_PHASE_&#45;&gt;PrepareMainPhase -->
<g id="edge16" class="edge">
<title>_CALIBRATE_PHASE_&#45;&gt;PrepareMainPhase</title>
<path fill="none" stroke="#000000" d="M1608.6058,-82.8144C1626.731,-78.8359 1646.5763,-74.6135 1664.8997,-71 1687.3141,-66.5797 1711.7915,-62.1411 1734.0288,-58.2564"/>
<polygon fill="#000000" stroke="#000000" points="1734.8189,-61.6717 1744.0728,-56.5126 1733.6214,-54.7748 1734.8189,-61.6717"/>
<text text-anchor="middle" x="1688.3997" y="-74.8" font-family="Times,serif" font-size="14.00" fill="#000000">Finished</text>
</g>
<!-- StartOffer -->
<g id="node15" class="node">
<title>StartOffer</title>
<ellipse fill="none" stroke="#000000" cx="1967.7318" cy="-80" rx="46.2923" ry="18"/>
<text text-anchor="middle" x="1967.7318" y="-76.3" font-family="Times,serif" font-size="14.00" fill="#000000">StartOffer</text>
</g>
<!-- _MAIN_PHASE_&#45;&gt;StartOffer -->
<g id="edge17" class="edge">
<title>_MAIN_PHASE_&#45;&gt;StartOffer</title>
<path fill="none" stroke="#000000" d="M1597.7446,-137.7052C1634.4136,-128.6244 1684.9337,-116.859 1729.8997,-109 1791.9324,-98.1581 1863.7714,-89.9975 1912.1241,-85.1385"/>
<polygon fill="#000000" stroke="#000000" points="1912.7692,-88.5918 1922.3752,-84.1225 1912.0787,-81.6259 1912.7692,-88.5918"/>
<text text-anchor="middle" x="1807.2428" y="-112.8" font-family="Times,serif" font-size="14.00" fill="#000000">Not finished</text>
</g>
<!-- EndExperiment -->
<g id="node16" class="node">
<title>EndExperiment</title>
<ellipse fill="none" stroke="#000000" cx="1807.2428" cy="-151" rx="66.0889" ry="18"/>
<text text-anchor="middle" x="1807.2428" y="-147.3" font-family="Times,serif" font-size="14.00" fill="#000000">EndExperiment</text>
</g>
<!-- _MAIN_PHASE_&#45;&gt;EndExperiment -->
<g id="edge18" class="edge">
<title>_MAIN_PHASE_&#45;&gt;EndExperiment</title>
<path fill="none" stroke="#000000" d="M1621.675,-151C1655.7957,-151 1696.0554,-151 1730.3398,-151"/>
<polygon fill="#000000" stroke="#000000" points="1730.7746,-154.5001 1740.7745,-151 1730.7745,-147.5001 1730.7746,-154.5001"/>
<text text-anchor="middle" x="1688.3997" y="-154.8" font-family="Times,serif" font-size="14.00" fill="#000000">Finished</text>
</g>
<!-- PrepareCalibration&#45;&gt;PrepareTrial -->
<g id="edge19" class="edge">
<title>PrepareCalibration&#45;&gt;PrepareTrial</title>
<path fill="none" stroke="#000000" d="M1734.1485,-248.9815C1681.833,-245.187 1609.7077,-241 1546.1586,-241 644.5559,-241 644.5559,-241 644.5559,-241 600.1697,-241 557.5109,-208.8773 532.2128,-185.3421"/>
<polygon fill="#000000" stroke="#000000" points="534.5748,-182.7578 524.9364,-178.3588 529.7279,-187.8083 534.5748,-182.7578"/>
</g>
<!-- PrepareMainPhase&#45;&gt;StartOffer -->
<g id="edge20" class="edge">
<title>PrepareMainPhase&#45;&gt;StartOffer</title>
<path fill="none" stroke="#000000" d="M1864.7297,-58.1787C1881.712,-61.7765 1900.1768,-65.6883 1916.7211,-69.1932"/>
<polygon fill="#000000" stroke="#000000" points="1916.2354,-72.668 1926.7437,-71.3166 1917.6862,-65.8199 1916.2354,-72.668"/>
</g>
<!-- StartOffer&#45;&gt;PrepareTrial -->
<g id="edge21" class="edge">
<title>StartOffer&#45;&gt;PrepareTrial</title>
<path fill="none" stroke="#000000" d="M1949.6054,-63.4055C1933.6066,-49.6068 1909.0802,-30.4394 1884.5859,-19 1852.5144,-4.0218 1842.6396,0 1807.2428,0 644.5559,0 644.5559,0 644.5559,0 575.7166,0 534.6887,-87.0703 517.7962,-133.1483"/>
<polygon fill="#000000" stroke="#000000" points="514.402,-132.2494 514.376,-142.8442 521.0033,-134.578 514.402,-132.2494"/>
<text text-anchor="middle" x="1245.9787" y="-3.8" font-family="Times,serif" font-size="14.00" fill="#000000">Offer accepted</text>
</g>
<!-- RejectOffer -->
<g id="node17" class="node">
<title>RejectOffer</title>
<ellipse fill="none" stroke="#000000" cx="2177.8731" cy="-149" rx="51.9908" ry="18"/>
<text text-anchor="middle" x="2177.8731" y="-145.3" font-family="Times,serif" font-size="14.00" fill="#000000">RejectOffer</text>
</g>
<!-- StartOffer&#45;&gt;RejectOffer -->
<g id="edge22" class="edge">
<title>StartOffer&#45;&gt;RejectOffer</title>
<path fill="none" stroke="#000000" d="M2003.3794,-91.7049C2038.207,-103.1406 2091.4542,-120.6243 2129.9685,-133.2705"/>
<polygon fill="#000000" stroke="#000000" points="2129.3242,-136.7427 2139.917,-136.5371 2131.508,-130.0921 2129.3242,-136.7427"/>
<text text-anchor="middle" x="2069.8777" y="-127.8" font-family="Times,serif" font-size="14.00" fill="#000000">Offer rejected</text>
</g>
<!-- RejectOffer&#45;&gt;LogData -->
<g id="edge23" class="edge">
<title>RejectOffer&#45;&gt;LogData</title>
<path fill="none" stroke="#000000" d="M2142.3686,-162.2433C2101.0335,-176.451 2030.4145,-197 1967.7318,-197 1688.3997,-197 1688.3997,-197 1688.3997,-197 1592.4731,-197 1480.7922,-187.5802 1417.4886,-181.3584"/>
<polygon fill="#000000" stroke="#000000" points="1417.6748,-177.8597 1407.3771,-180.3512 1416.9809,-184.8253 1417.6748,-177.8597"/>
</g>
</g>
</svg>
