<?xml version="1.0" encoding="UTF-8" standalone="no"?>
<!DOCTYPE svg PUBLIC "-//W3C//DTD SVG 1.1//EN" "http://www.w3.org/Graphics/SVG/1.1/DTD/svg11.dtd">
<!-- Generated by graphviz version 2.40.1 (20161225.0304)
 -->
<!-- Title: G Pages: 1 -->
<svg width="1727pt" height="123pt" viewBox="0.00 0.00 1727.39 123.00" xmlns="http://www.w3.org/2000/svg" xmlns:xlink="http://www.w3.org/1999/xlink">
<g id="graph0" class="graph" transform="scale(1 1) rotate(0) translate(4 119)">
<title>G</title>
<polygon fill="#ffffff" stroke="transparent" points="-4,4 -4,-119 1723.3887,-119 1723.3887,4 -4,4"/>
<!-- Ready -->
<g id="node1" class="node">
<title>Ready</title>
<ellipse fill="none" stroke="#000000" cx="35.7071" cy="-18" rx="35.9154" ry="18"/>
<text text-anchor="middle" x="35.7071" y="-13.8" font-family="Times,serif" font-size="14.00" fill="#000000">Ready</text>
</g>
<!-- StartExperiment -->
<g id="node2" class="node">
<title>StartExperiment</title>
<ellipse fill="none" stroke="#000000" cx="182.7404" cy="-18" rx="74.1528" ry="18"/>
<text text-anchor="middle" x="182.7404" y="-13.8" font-family="Times,serif" font-size="14.00" fill="#000000">StartExperiment</text>
</g>
<!-- Ready&#45;&gt;StartExperiment -->
<g id="edge1" class="edge">
<title>Ready-&gt;StartExperiment</title>
<path fill="none" stroke="#000000" d="M71.6755,-18C79.8545,-18 88.881,-18 98.1478,-18"/>
<polygon fill="#000000" stroke="#000000" points="98.2689,-21.5001 108.2689,-18 98.2688,-14.5001 98.2689,-21.5001"/>
</g>
<!-- PrepareTrial -->
<g id="node3" class="node">
<title>PrepareTrial</title>
<ellipse fill="none" stroke="#000000" cx="353.3579" cy="-18" rx="59.0833" ry="18"/>
<text text-anchor="middle" x="353.3579" y="-13.8" font-family="Times,serif" font-size="14.00" fill="#000000">PrepareTrial</text>
</g>
<!-- StartExperiment&#45;&gt;PrepareTrial -->
<g id="edge2" class="edge">
<title>StartExperiment-&gt;PrepareTrial</title>
<path fill="none" stroke="#000000" d="M257.0794,-18C265.9219,-18 274.9244,-18 283.6981,-18"/>
<polygon fill="#000000" stroke="#000000" points="283.8695,-21.5001 293.8694,-18 283.8694,-14.5001 283.8695,-21.5001"/>
</g>
<!-- StartTrial -->
<g id="node4" class="node">
<title>StartTrial</title>
<ellipse fill="none" stroke="#000000" cx="497.6911" cy="-52" rx="48.0839" ry="18"/>
<text text-anchor="middle" x="497.6911" y="-47.8" font-family="Times,serif" font-size="14.00" fill="#000000">StartTrial</text>
</g>
<!-- PrepareTrial&#45;&gt;StartTrial -->
<g id="edge3" class="edge">
<title>PrepareTrial-&gt;StartTrial</title>
<path fill="none" stroke="#000000" d="M400.2187,-29.0388C415.2088,-32.57 431.8666,-36.494 447.1095,-40.0847"/>
<polygon fill="#000000" stroke="#000000" points="446.3541,-43.5025 456.8902,-42.3887 447.9591,-36.689 446.3541,-43.5025"/>
</g>
<!-- CheckKeys -->
<g id="node5" class="node">
<title>CheckKeys</title>
<ellipse fill="none" stroke="#000000" cx="681.9926" cy="-97" rx="55.5985" ry="18"/>
<text text-anchor="middle" x="681.9926" y="-92.8" font-family="Times,serif" font-size="14.00" fill="#000000">CheckKeys</text>
</g>
<!-- StartTrial&#45;&gt;CheckKeys -->
<g id="edge4" class="edge">
<title>StartTrial-&gt;CheckKeys</title>
<path fill="none" stroke="#000000" d="M534.5588,-63.7745C544.0224,-66.6288 554.2179,-69.5583 563.733,-72 583.2924,-77.0192 604.8564,-81.7974 624.1546,-85.8065"/>
<polygon fill="#000000" stroke="#000000" points="623.5177,-89.2487 634.0171,-87.8302 624.9247,-82.3916 623.5177,-89.2487"/>
<text text-anchor="middle" x="586.0882" y="-85.2" font-family="Times,serif" font-size="14.00" fill="#000000">on key</text>
</g>
<!-- ProcessClick -->
<g id="node7" class="node">
<title>ProcessClick</title>
<ellipse fill="none" stroke="#000000" cx="816.9973" cy="-51" rx="61.4109" ry="18"/>
<text text-anchor="middle" x="816.9973" y="-46.8" font-family="Times,serif" font-size="14.00" fill="#000000">ProcessClick</text>
</g>
<!-- StartTrial&#45;&gt;ProcessClick -->
<g id="edge6" class="edge">
<title>StartTrial-&gt;ProcessClick</title>
<path fill="none" stroke="#000000" d="M546.0223,-51.3515C551.987,-51.29 557.9999,-51.237 563.733,-51.2 624.9209,-50.8053 694.4257,-50.7806 745.1239,-50.8403"/>
<polygon fill="#000000" stroke="#000000" points="745.321,-54.3404 755.3256,-50.8537 745.3303,-47.3404 745.321,-54.3404"/>
<text text-anchor="middle" x="586.0882" y="-55.2" font-family="Times,serif" font-size="14.00" fill="#000000">on click</text>
</g>
<!-- ProcessKeys -->
<g id="node6" class="node">
<title>ProcessKeys</title>
<ellipse fill="none" stroke="#000000" cx="956.8275" cy="-97" rx="60.2499" ry="18"/>
<text text-anchor="middle" x="956.8275" y="-92.8" font-family="Times,serif" font-size="14.00" fill="#000000">ProcessKeys</text>
</g>
<!-- CheckKeys&#45;&gt;ProcessKeys -->
<g id="edge5" class="edge">
<title>CheckKeys-&gt;ProcessKeys</title>
<path fill="none" stroke="#000000" d="M737.6096,-97C780.3355,-97 839.6491,-97 885.8065,-97"/>
<polygon fill="#000000" stroke="#000000" points="886.0406,-100.5001 896.0405,-97 886.0405,-93.5001 886.0406,-100.5001"/>
<text text-anchor="middle" x="816.9973" y="-101.2" font-family="Times,serif" font-size="14.00" fill="#000000">if response key</text>
</g>
<!-- HandleResponse -->
<g id="node8" class="node">
<title>HandleResponse</title>
<ellipse fill="none" stroke="#000000" cx="1130.1345" cy="-52" rx="75.8643" ry="18"/>
<text text-anchor="middle" x="1130.1345" y="-47.8" font-family="Times,serif" font-size="14.00" fill="#000000">HandleResponse</text>
</g>
<!-- ProcessKeys&#45;&gt;HandleResponse -->
<g id="edge7" class="edge">
<title>ProcessKeys-&gt;HandleResponse</title>
<path fill="none" stroke="#000000" d="M1002.3619,-85.1768C1022.7127,-79.8926 1047.0025,-73.5856 1068.9124,-67.8966"/>
<polygon fill="#000000" stroke="#000000" points="1069.9895,-71.2331 1078.7889,-65.3321 1068.2302,-64.4577 1069.9895,-71.2331"/>
</g>
<!-- ProcessClick&#45;&gt;HandleResponse -->
<g id="edge8" class="edge">
<title>ProcessClick-&gt;HandleResponse</title>
<path fill="none" stroke="#000000" d="M878.4895,-51.1964C925.6616,-51.347 991.365,-51.5568 1043.8063,-51.7243"/>
<polygon fill="#000000" stroke="#000000" points="1044.0971,-55.2252 1054.1083,-51.7572 1044.1195,-48.2252 1044.0971,-55.2252"/>
</g>
<!-- ShowFeedback -->
<g id="node9" class="node">
<title>ShowFeedback</title>
<ellipse fill="none" stroke="#000000" cx="1313.1003" cy="-52" rx="70.0674" ry="18"/>
<text text-anchor="middle" x="1313.1003" y="-47.8" font-family="Times,serif" font-size="14.00" fill="#000000">ShowFeedback</text>
</g>
<!-- HandleResponse&#45;&gt;ShowFeedback -->
<g id="edge9" class="edge">
<title>HandleResponse-&gt;ShowFeedback</title>
<path fill="none" stroke="#000000" d="M1206.1389,-52C1214.8895,-52 1223.8346,-52 1232.6415,-52"/>
<polygon fill="#000000" stroke="#000000" points="1232.8965,-55.5001 1242.8964,-52 1232.8964,-48.5001 1232.8965,-55.5001"/>
</g>
<!-- LogData -->
<g id="node10" class="node">
<title>LogData</title>
<ellipse fill="none" stroke="#000000" cx="1464.9553" cy="-18" rx="44.6434" ry="18"/>
<text text-anchor="middle" x="1464.9553" y="-13.8" font-family="Times,serif" font-size="14.00" fill="#000000">LogData</text>
</g>
<!-- ShowFeedback&#45;&gt;LogData -->
<g id="edge10" class="edge">
<title>ShowFeedback-&gt;LogData</title>
<path fill="none" stroke="#000000" d="M1366.2118,-40.1084C1382.2083,-36.5269 1399.6943,-32.6118 1415.447,-29.0848"/>
<polygon fill="#000000" stroke="#000000" points="1416.5218,-32.4309 1425.5154,-26.8305 1414.9923,-25.6 1416.5218,-32.4309"/>
</g>
<!-- LogData&#45;&gt;PrepareTrial -->
<g id="edge11" class="edge">
<title>LogData-&gt;PrepareTrial</title>
<path fill="none" stroke="#000000" d="M1421.8261,-12.7715C1391.4702,-9.5378 1349.8601,-6 1313.1003,-6 497.6911,-6 497.6911,-6 497.6911,-6 471.7242,-6 443.2196,-7.9528 418.4504,-10.2829"/>
<polygon fill="#000000" stroke="#000000" points="418.0527,-6.805 408.4416,-11.2634 418.7352,-13.7717 418.0527,-6.805"/>
<text text-anchor="middle" x="956.8275" y="-10.2" font-family="Times,serif" font-size="14.00" fill="#000000">Not done</text>
</g>
<!-- EndExperiment -->
<g id="node11" class="node">
<title>EndExperiment</title>
<ellipse fill="none" stroke="#000000" cx="1647.7432" cy="-18" rx="71.7911" ry="18"/>
<text text-anchor="middle" x="1647.7432" y="-13.8" font-family="Times,serif" font-size="14.00" fill="#000000">EndExperiment</text>
</g>
<!-- LogData&#45;&gt;EndExperiment -->
<g id="edge12" class="edge">
<title>LogData-&gt;EndExperiment</title>
<path fill="none" stroke="#000000" d="M1510.1388,-18C1526.9863,-18 1546.6769,-18 1565.8085,-18"/>
<polygon fill="#000000" stroke="#000000" points="1566.0498,-21.5001 1576.0498,-18 1566.0498,-14.5001 1566.0498,-21.5001"/>
<text text-anchor="middle" x="1542.9372" y="-22.2" font-family="Times,serif" font-size="14.00" fill="#000000">Done</text>
</g>
</g>
</svg>