<?xml version="1.0" encoding="UTF-8" standalone="no"?>
<!DOCTYPE svg PUBLIC "-//W3C//DTD SVG 1.1//EN" "http://www.w3.org/Graphics/SVG/1.1/DTD/svg11.dtd">
<!-- Generated by graphviz version 2.40.1 (20161225.0304)
 -->
<!-- Title: G Pages: 1 -->
<svg width="1166pt" height="138pt" viewBox="0.00 0.00 1166.16 138.00" xmlns="http://www.w3.org/2000/svg" xmlns:xlink="http://www.w3.org/1999/xlink">
<g id="graph0" class="graph" transform="scale(1 1) rotate(0) translate(4 134)">
<title>G</title>
<polygon fill="#ffffff" stroke="transparent" points="-4,4 -4,-134 1162.1614,-134 1162.1614,4 -4,4"/>
<!-- Ready -->
<g id="node1" class="node">
<title>Ready</title>
<ellipse fill="none" stroke="#000000" cx="35.7071" cy="-18" rx="35.9154" ry="18"/>
<text text-anchor="middle" x="35.7071" y="-13.8" font-family="Times,serif" font-size="14.00" fill="#000000">Ready</text>
</g>
<!-- PrepareBlock -->
<g id="node2" class="node">
<title>PrepareBlock</title>
<ellipse fill="none" stroke="#000000" cx="172.0048" cy="-18" rx="63.6813" ry="18"/>
<text text-anchor="middle" x="172.0048" y="-13.8" font-family="Times,serif" font-size="14.00" fill="#000000">PrepareBlock</text>
</g>
<!-- Ready&#45;&gt;PrepareBlock -->
<g id="edge1" class="edge">
<title>Ready-&gt;PrepareBlock</title>
<path fill="none" stroke="#000000" d="M71.5177,-18C79.8005,-18 88.9131,-18 98.1665,-18"/>
<polygon fill="#000000" stroke="#000000" points="98.2301,-21.5001 108.2301,-18 98.23,-14.5001 98.2301,-21.5001"/>
</g>
<!-- StartTrial -->
<g id="node3" class="node">
<title>StartTrial</title>
<ellipse fill="none" stroke="#000000" cx="320.6373" cy="-59" rx="48.0839" ry="18"/>
<text text-anchor="middle" x="320.6373" y="-54.8" font-family="Times,serif" font-size="14.00" fill="#000000">StartTrial</text>
</g>
<!-- PrepareBlock&#45;&gt;StartTrial -->
<g id="edge2" class="edge">
<title>PrepareBlock-&gt;StartTrial</title>
<path fill="none" stroke="#000000" d="M217.8122,-30.6359C234.9248,-35.3564 254.4145,-40.7326 271.7908,-45.5258"/>
<polygon fill="#000000" stroke="#000000" points="271.1729,-48.986 281.7436,-48.2713 273.0344,-42.238 271.1729,-48.986"/>
</g>
<!-- CheckResponse -->
<g id="node4" class="node">
<title>CheckResponse</title>
<ellipse fill="none" stroke="#000000" cx="522.1069" cy="-112" rx="72.9353" ry="18"/>
<text text-anchor="middle" x="522.1069" y="-107.8" font-family="Times,serif" font-size="14.00" fill="#000000">CheckResponse</text>
</g>
<!-- StartTrial&#45;&gt;CheckResponse -->
<g id="edge3" class="edge">
<title>StartTrial-&gt;CheckResponse</title>
<path fill="none" stroke="#000000" d="M359.9609,-69.3448C389.0189,-76.989 429.1014,-87.5333 462.1434,-96.2256"/>
<polygon fill="#000000" stroke="#000000" points="461.5904,-99.6991 472.1518,-98.8585 463.3713,-92.9294 461.5904,-99.6991"/>
<text text-anchor="middle" x="409.0344" y="-91.2" font-family="Times,serif" font-size="14.00" fill="#000000">on click</text>
</g>
<!-- LogData -->
<g id="node5" class="node">
<title>LogData</title>
<ellipse fill="none" stroke="#000000" cx="676.6456" cy="-59" rx="44.6434" ry="18"/>
<text text-anchor="middle" x="676.6456" y="-54.8" font-family="Times,serif" font-size="14.00" fill="#000000">LogData</text>
</g>
<!-- CheckResponse&#45;&gt;LogData -->
<g id="edge4" class="edge">
<title>CheckResponse-&gt;LogData</title>
<path fill="none" stroke="#000000" d="M564.7444,-97.3772C585.9726,-90.0969 611.5979,-81.3085 632.9671,-73.9798"/>
<polygon fill="#000000" stroke="#000000" points="634.1311,-77.2808 642.4548,-70.7259 631.8602,-70.6594 634.1311,-77.2808"/>
</g>
<!-- LogData&#45;&gt;StartTrial -->
<g id="edge6" class="edge">
<title>LogData-&gt;StartTrial</title>
<path fill="none" stroke="#000000" d="M631.7401,-59C567.663,-59 449.9326,-59 379.1165,-59"/>
<polygon fill="#000000" stroke="#000000" points="379.0207,-55.5001 369.0206,-59 379.0206,-62.5001 379.0207,-55.5001"/>
<text text-anchor="middle" x="522.1069" y="-63.2" font-family="Times,serif" font-size="14.00" fill="#000000">Block not done (on click)</text>
</g>
<!-- EndBlock -->
<g id="node6" class="node">
<title>EndBlock</title>
<ellipse fill="none" stroke="#000000" cx="871.2838" cy="-22" rx="49.8214" ry="18"/>
<text text-anchor="middle" x="871.2838" y="-17.8" font-family="Times,serif" font-size="14.00" fill="#000000">EndBlock</text>
</g>
<!-- LogData&#45;&gt;EndBlock -->
<g id="edge5" class="edge">
<title>LogData-&gt;EndBlock</title>
<path fill="none" stroke="#000000" d="M717.4481,-51.2436C746.4172,-45.7367 785.6107,-38.2861 817.1862,-32.2837"/>
<polygon fill="#000000" stroke="#000000" points="817.9773,-35.6961 827.1478,-30.3901 816.67,-28.8193 817.9773,-35.6961"/>
<text text-anchor="middle" x="771.5451" y="-52.2" font-family="Times,serif" font-size="14.00" fill="#000000">Block done</text>
</g>
<!-- EndBlock&#45;&gt;PrepareBlock -->
<g id="edge7" class="edge">
<title>EndBlock-&gt;PrepareBlock</title>
<path fill="none" stroke="#000000" d="M824.1761,-15.9511C784.812,-11.4202 727.1645,-6 676.6456,-6 320.6373,-6 320.6373,-6 320.6373,-6 294.5847,-6 266.0466,-7.8544 241.0029,-10.1052"/>
<polygon fill="#000000" stroke="#000000" points="240.4964,-6.6372 230.8662,-11.0543 241.149,-13.6067 240.4964,-6.6372"/>
<text text-anchor="middle" x="522.1069" y="-10.2" font-family="Times,serif" font-size="14.00" fill="#000000">Task not done (on click)</text>
</g>
<!-- EndExperiment -->
<g id="node7" class="node">
<title>EndExperiment</title>
<ellipse fill="none" stroke="#000000" cx="1086.516" cy="-22" rx="71.7911" ry="18"/>
<text text-anchor="middle" x="1086.516" y="-17.8" font-family="Times,serif" font-size="14.00" fill="#000000">EndExperiment</text>
</g>
<!-- EndBlock&#45;&gt;EndExperiment -->
<g id="edge8" class="edge">
<title>EndBlock-&gt;EndExperiment</title>
<path fill="none" stroke="#000000" d="M921.2033,-22C945.9779,-22 976.5444,-22 1004.6279,-22"/>
<polygon fill="#000000" stroke="#000000" points="1004.8468,-25.5001 1014.8468,-22 1004.8467,-18.5001 1004.8468,-25.5001"/>
<text text-anchor="middle" x="967.9074" y="-26.2" font-family="Times,serif" font-size="14.00" fill="#000000">Task done</text>
</g>
</g>
</svg>