<?xml version="1.0" encoding="UTF-8" standalone="no"?>
<!DOCTYPE svg PUBLIC "-//W3C//DTD SVG 1.1//EN" "http://www.w3.org/Graphics/SVG/1.1/DTD/svg11.dtd">
<!-- Generated by graphviz version 2.40.1 (20161225.0304)
 -->
<!-- Title: G Pages: 1 -->
<svg width="2005pt" height="127pt" viewBox="0.00 0.00 2004.83 127.00" xmlns="http://www.w3.org/2000/svg" xmlns:xlink="http://www.w3.org/1999/xlink">
<g id="graph0" class="graph" transform="scale(1 1) rotate(0) translate(4 123)">
<title>G</title>
<polygon fill="#ffffff" stroke="transparent" points="-4,4 -4,-123 2000.8319,-123 2000.8319,4 -4,4"/>
<!-- Ready -->
<g id="node1" class="node">
<title>Ready</title>
<ellipse fill="none" stroke="#000000" cx="35.7071" cy="-18" rx="35.9154" ry="18"/>
<text text-anchor="middle" x="35.7071" y="-13.8" font-family="Times,serif" font-size="14.00" fill="#000000">Ready</text>
</g>
<!-- StartBlock -->
<g id="node2" class="node">
<title>StartBlock</title>
<ellipse fill="none" stroke="#000000" cx="211.057" cy="-18" rx="52.1829" ry="18"/>
<text text-anchor="middle" x="211.057" y="-13.8" font-family="Times,serif" font-size="14.00" fill="#000000">StartBlock</text>
</g>
<!-- Ready&#45;&gt;StartBlock -->
<g id="edge1" class="edge">
<title>Ready-&gt;StartBlock</title>
<path fill="none" stroke="#000000" d="M71.6149,-18C93.7287,-18 122.6879,-18 148.482,-18"/>
<polygon fill="#000000" stroke="#000000" points="148.5632,-21.5001 158.5632,-18 148.5632,-14.5001 148.5632,-21.5001"/>
<text text-anchor="middle" x="115.065" y="-22.2" font-family="Times,serif" font-size="14.00" fill="#000000">Spacebar</text>
</g>
<!-- PrepareTrial -->
<g id="node3" class="node">
<title>PrepareTrial</title>
<ellipse fill="none" stroke="#000000" cx="409.9911" cy="-48" rx="59.0833" ry="18"/>
<text text-anchor="middle" x="409.9911" y="-43.8" font-family="Times,serif" font-size="14.00" fill="#000000">PrepareTrial</text>
</g>
<!-- StartBlock&#45;&gt;PrepareTrial -->
<g id="edge2" class="edge">
<title>StartBlock-&gt;PrepareTrial</title>
<path fill="none" stroke="#000000" d="M259.2134,-25.2622C285.4312,-29.2159 318.1985,-34.1573 346.483,-38.4227"/>
<polygon fill="#000000" stroke="#000000" points="346.2703,-41.9302 356.6804,-39.9606 347.3141,-35.0084 346.2703,-41.9302"/>
<text text-anchor="middle" x="307.049" y="-40.2" font-family="Times,serif" font-size="14.00" fill="#000000">Spacebar</text>
</g>
<!-- ShowFixation -->
<g id="node4" class="node">
<title>ShowFixation</title>
<ellipse fill="none" stroke="#000000" cx="619.0911" cy="-94" rx="65.4498" ry="18"/>
<text text-anchor="middle" x="619.0911" y="-89.8" font-family="Times,serif" font-size="14.00" fill="#000000">ShowFixation</text>
</g>
<!-- PrepareTrial&#45;&gt;ShowFixation -->
<g id="edge3" class="edge">
<title>PrepareTrial-&gt;ShowFixation</title>
<path fill="none" stroke="#000000" d="M458.2254,-58.6111C487.8276,-65.1233 526.0152,-73.5242 557.7546,-80.5066"/>
<polygon fill="#000000" stroke="#000000" points="557.2955,-83.9892 567.814,-82.7195 558.7995,-77.1527 557.2955,-83.9892"/>
<text text-anchor="middle" x="511.5745" y="-79.2" font-family="Times,serif" font-size="14.00" fill="#000000">Wait ITI</text>
</g>
<!-- ShowCues -->
<g id="node5" class="node">
<title>ShowCues</title>
<ellipse fill="none" stroke="#000000" cx="878.8035" cy="-97" rx="52.1886" ry="18"/>
<text text-anchor="middle" x="878.8035" y="-92.8" font-family="Times,serif" font-size="14.00" fill="#000000">ShowCues</text>
</g>
<!-- ShowFixation&#45;&gt;ShowCues -->
<g id="edge4" class="edge">
<title>ShowFixation-&gt;ShowCues</title>
<path fill="none" stroke="#000000" d="M684.2923,-94.7532C724.654,-95.2194 776.204,-95.8148 816.093,-96.2756"/>
<polygon fill="#000000" stroke="#000000" points="816.1899,-99.7769 826.2297,-96.3927 816.2709,-92.7773 816.1899,-99.7769"/>
<text text-anchor="middle" x="755.3875" y="-100.2" font-family="Times,serif" font-size="14.00" fill="#000000">Wait fixation_time</text>
</g>
<!-- WaitResponse -->
<g id="node6" class="node">
<title>WaitResponse</title>
<ellipse fill="none" stroke="#000000" cx="1144.012" cy="-101" rx="66.6325" ry="18"/>
<text text-anchor="middle" x="1144.012" y="-96.8" font-family="Times,serif" font-size="14.00" fill="#000000">WaitResponse</text>
</g>
<!-- ShowCues&#45;&gt;WaitResponse -->
<g id="edge5" class="edge">
<title>ShowCues-&gt;WaitResponse</title>
<path fill="none" stroke="#000000" d="M931.2002,-97.7903C969.9934,-98.3754 1023.4566,-99.1817 1067.0906,-99.8398"/>
<polygon fill="#000000" stroke="#000000" points="1067.045,-103.3394 1077.0967,-99.9908 1067.1507,-96.3402 1067.045,-103.3394"/>
<text text-anchor="middle" x="1004.1718" y="-103.2" font-family="Times,serif" font-size="14.00" fill="#000000">Wait stimulus_time</text>
</g>
<!-- CheckResponse -->
<g id="node7" class="node">
<title>CheckResponse</title>
<ellipse fill="none" stroke="#000000" cx="1360.3665" cy="-99" rx="72.9353" ry="18"/>
<text text-anchor="middle" x="1360.3665" y="-94.8" font-family="Times,serif" font-size="14.00" fill="#000000">CheckResponse</text>
</g>
<!-- WaitResponse&#45;&gt;CheckResponse -->
<g id="edge6" class="edge">
<title>WaitResponse-&gt;CheckResponse</title>
<path fill="none" stroke="#000000" d="M1210.9862,-100.3809C1232.08,-100.1859 1255.6311,-99.9682 1277.6834,-99.7643"/>
<polygon fill="#000000" stroke="#000000" points="1277.7286,-103.2642 1287.6958,-99.6718 1277.6639,-96.2645 1277.7286,-103.2642"/>
<text text-anchor="middle" x="1249.2386" y="-104.2" font-family="Times,serif" font-size="14.00" fill="#000000">On key</text>
</g>
<!-- ShowFeedback -->
<g id="node8" class="node">
<title>ShowFeedback</title>
<ellipse fill="none" stroke="#000000" cx="1540.1175" cy="-96" rx="70.0674" ry="18"/>
<text text-anchor="middle" x="1540.1175" y="-91.8" font-family="Times,serif" font-size="14.00" fill="#000000">ShowFeedback</text>
</g>
<!-- CheckResponse&#45;&gt;ShowFeedback -->
<g id="edge7" class="edge">
<title>CheckResponse-&gt;ShowFeedback</title>
<path fill="none" stroke="#000000" d="M1432.96,-97.7884C1441.88,-97.6396 1451.0361,-97.4867 1460.0585,-97.3362"/>
<polygon fill="#000000" stroke="#000000" points="1460.2286,-100.8339 1470.1688,-97.1674 1460.1117,-93.8349 1460.2286,-100.8339"/>
</g>
<!-- LogData -->
<g id="node9" class="node">
<title>LogData</title>
<ellipse fill="none" stroke="#000000" cx="1804.0884" cy="-48" rx="44.6434" ry="18"/>
<text text-anchor="middle" x="1804.0884" y="-43.8" font-family="Times,serif" font-size="14.00" fill="#000000">LogData</text>
</g>
<!-- ShowFeedback&#45;&gt;LogData -->
<g id="edge8" class="edge">
<title>ShowFeedback-&gt;LogData</title>
<path fill="none" stroke="#000000" d="M1600.1165,-86.6928C1640.182,-80.2729 1693.9973,-71.2556 1741.267,-62 1745.7047,-61.1311 1750.3093,-60.187 1754.9171,-59.2133"/>
<polygon fill="#000000" stroke="#000000" points="1755.9077,-62.5802 1764.9458,-57.0519 1754.4329,-55.7373 1755.9077,-62.5802"/>
<text text-anchor="middle" x="1684.7091" y="-85.2" font-family="Times,serif" font-size="14.00" fill="#000000">Wait feedback_time</text>
</g>
<!-- LogData&#45;&gt;StartBlock -->
<g id="edge10" class="edge">
<title>LogData-&gt;StartBlock</title>
<path fill="none" stroke="#000000" d="M1767.2828,-37.4467C1716.5903,-23.8659 1622.2234,-2 1540.1175,-2 409.9911,-2 409.9911,-2 409.9911,-2 362.9768,-2 309.9132,-6.495 270.4209,-10.7199"/>
<polygon fill="#000000" stroke="#000000" points="269.9887,-7.2462 260.4291,-11.814 270.7507,-14.2047 269.9887,-7.2462"/>
<text text-anchor="middle" x="1004.1718" y="-6.2" font-family="Times,serif" font-size="14.00" fill="#000000">If block done</text>
</g>
<!-- LogData&#45;&gt;PrepareTrial -->
<g id="edge9" class="edge">
<title>LogData-&gt;PrepareTrial</title>
<path fill="none" stroke="#000000" d="M1759.25,-48C1706.7319,-48 1617.109,-48 1540.1175,-48 619.0911,-48 619.0911,-48 619.0911,-48 572.5734,-48 520.2346,-48 479.5571,-48"/>
<polygon fill="#000000" stroke="#000000" points="479.4773,-44.5001 469.4773,-48 479.4773,-51.5001 479.4773,-44.5001"/>
<text text-anchor="middle" x="1144.012" y="-52.2" font-family="Times,serif" font-size="14.00" fill="#000000">If block not done</text>
</g>
<!-- End -->
<g id="node10" class="node">
<title>End</title>
<ellipse fill="none" stroke="#000000" cx="1969.8319" cy="-48" rx="27" ry="18"/>
<text text-anchor="middle" x="1969.8319" y="-43.8" font-family="Times,serif" font-size="14.00" fill="#000000">End</text>
</g>
<!-- LogData&#45;&gt;End -->
<g id="edge11" class="edge">
<title>LogData-&gt;End</title>
<path fill="none" stroke="#000000" d="M1848.9409,-48C1875.1136,-48 1907.7455,-48 1932.5075,-48"/>
<polygon fill="#000000" stroke="#000000" points="1932.5962,-51.5001 1942.5961,-48 1932.5961,-44.5001 1932.5962,-51.5001"/>
<text text-anchor="middle" x="1895.8708" y="-52.2" font-family="Times,serif" font-size="14.00" fill="#000000">If finished</text>
</g>
</g>
</svg>