<svg id="dots" width="400" height="400"><g transform="translate(200,200)"><g><circle fill="#0f0" cx="86.7641700913564" cy="84.52717370974558" r="10"></circle><circle fill="#0f0" cx="77.85685945853614" cy="107.13247287046225" r="10"></circle><circle fill="#0f0" cx="44.41107637443192" cy="53.468161180665376" r="10"></circle><circle fill="#0f0" cx="-5.252738574197435" cy="12.402826165266266" r="10"></circle><circle fill="#0f0" cx="95.56350511952007" cy="6.989271246699357" r="10"></circle><circle fill="#0f0" cx="-76.78749393478734" cy="43.069426928354005" r="10"></circle><circle fill="#0f0" cx="-39.93633418459667" cy="-28.065753754344012" r="10"></circle><circle fill="#0f0" cx="-0.3007638050347327" cy="-16.40107826039628" r="10"></circle><circle fill="#0f0" cx="-86.98592807282093" cy="-76.13341246049106" r="10"></circle><circle fill="#0f0" cx="72.66545115468837" cy="-40.28771410535551" r="10"></circle><circle fill="#0f0" cx="95.13545678303188" cy="-50.90224480532461" r="10"></circle><circle fill="#0f0" cx="-62.90105147431039" cy="-21.68187575367012" r="10"></circle><circle fill="#0f0" cx="-61.70680400450655" cy="-117.5640146793337" r="10"></circle><circle fill="#0f0" cx="106.80581439888088" cy="27.3606298725707" r="10"></circle><circle fill="#0f0" cx="13.286197566641517" cy="-108.32503682828947" r="10"></circle><circle fill="#0f0" cx="45.929236593300374" cy="21.31401930069454" r="10"></circle><circle fill="#0f0" cx="41.271842408070924" cy="-72.1805403408717" r="10"></circle><circle fill="#0f0" cx="-60.19207797848538" cy="60.919588075268415" r="10"></circle><circle fill="#0f0" cx="-99.68725678083605" cy="-51.98899502604545" r="10"></circle><circle fill="#0f0" cx="-86.18839480501272" cy="-99.76020496073336" r="10"></circle><circle fill="#0f0" cx="84.80472462012553" cy="38.28560682505437" r="10"></circle><circle fill="#0f0" cx="23.142598056374414" cy="24.47021819776219" r="10"></circle><circle fill="#0f0" cx="-40.41434288453049" cy="-0.2603470599893697" r="10"></circle><circle fill="#0f0" cx="38.34886277183662" cy="-121.02285438047042" r="10"></circle><circle fill="#0f0" cx="65.55570266222843" cy="48.027932888172295" r="10"></circle><circle fill="#0f0" cx="22.056051454720087" cy="-23.925893318579995" r="10"></circle><circle fill="#0f0" cx="-62.97165394492121" cy="-93.05520048150971" r="10"></circle><circle fill="#0f0" cx="56.16863073461345" cy="100.7925035160458" r="10"></circle><circle fill="#0f0" cx="-14.502049378068758" cy="-106.86647954635005" r="10"></circle><circle fill="#0f0" cx="70.00564460300178" cy="-10.466530276803123" r="10"></circle><circle fill="#0f0" cx="23.53317701468354" cy="69.5046922924772" r="10"></circle><circle fill="#0f0" cx="-114.0307997812831" cy="65.17660244945712" r="10"></circle><circle fill="#0f0" cx="-20.971751275692395" cy="129.43032934062174" r="10"></circle><circle fill="#0f0" cx="-16.46716342839543" cy="-129.78401649435037" r="10"></circle><circle fill="#0f0" cx="-75.74079575302868" cy="77.50611713656825" r="10"></circle><circle fill="#0f0" cx="45.83169076295941" cy="123.2350377103585" r="10"></circle><circle fill="#0f0" cx="-92.58296922469124" cy="-22.594907870731056" r="10"></circle><circle fill="#0f0" cx="-124.95895260010788" cy="-21.507078434100787" r="10"></circle><circle fill="#0f0" cx="-98.49316975997937" cy="83.78522617734377" r="10"></circle><circle fill="#0f0" cx="-21.052300451111062" cy="55.12314340121689" r="10"></circle><circle fill="#0f0" cx="-18.73558189407018" cy="-85.39383378326191" r="10"></circle><circle fill="#0f0" cx="-78.59491331146225" cy="103.72363598995061" r="10"></circle><circle fill="#0f0" cx="18.17617359025139" cy="46.588818776009134" r="10"></circle><circle fill="#0f0" cx="-20.026960301888128" cy="-62.16372042695867" r="10"></circle><circle fill="#0f0" cx="83.34555432749204" cy="-101.69471999702685" r="10"></circle><circle fill="#0f0" cx="-15.405895205846319" cy="-39.113548895679735" r="10"></circle><circle fill="#0f0" cx="-58.01943006253904" cy="17.603832391661985" r="10"></circle><circle fill="#0f0" cx="-132.77523693502303" cy="4.895279327557608" r="10"></circle><circle fill="#0f0" cx="116.39810140870982" cy="-38.05007608508017" r="10"></circle><circle fill="#0f0" cx="-33.403562885331446" cy="111.68545115463078" r="10"></circle><circle fill="#0f0" cx="67.01933631959704" cy="73.00449473847479" r="10"></circle><circle fill="#0f0" cx="-87.58869107070906" cy="20.2928660691791" r="10"></circle><circle fill="#0f0" cx="-113.8041355089424" cy="19.66689797845599" r="10"></circle><circle fill="#0f0" cx="102.27751779591877" cy="56.23538202938589" r="10"></circle><circle fill="#0f0" cx="60.50105721512078" cy="-57.91894625565761" r="10"></circle><circle fill="#0f0" cx="5.889271561439657" cy="130.298094016325" r="10"></circle><circle fill="#0f0" cx="46.52381248952423" cy="-4.444022781651354" r="10"></circle><circle fill="#0f0" cx="-48.626445556578204" cy="39.78064458058779" r="10"></circle><circle fill="#0f0" cx="47.15516274616259" cy="-29.78468329010317" r="10"></circle><circle fill="#0f0" cx="124.83421889885614" cy="42.45941761632672" r="10"></circle><circle fill="#0f0" cx="-28.742723621356106" cy="23.366032004652993" r="10"></circle><circle fill="#0f0" cx="-56.475386293675946" cy="117.45250125702873" r="10"></circle><circle fill="#0f0" cx="-76.26308593952515" cy="-42.56955276656497" r="10"></circle><circle fill="#0f0" cx="61.572408048829814" cy="-114.8924073161941" r="10"></circle><circle fill="#0f0" cx="71.7667476064716" cy="-78.7025434218351" r="10"></circle><circle fill="#0f0" cx="-23.640323113584653" cy="89.08885114847311" r="10"></circle><circle fill="#0f0" cx="70.31493631695446" cy="16.550943697911944" r="10"></circle><circle fill="#0f0" cx="-38.134776616626695" cy="69.36325354367368" r="10"></circle><circle fill="#0f0" cx="-110.93752824486863" cy="-73.650296724718" r="10"></circle><circle fill="#0f0" cx="32.98138742113444" cy="-49.622219202408125" r="10"></circle><circle fill="#0f0" cx="-122.81103948218372" cy="-44.523804165427435" r="10"></circle><circle fill="#0f0" cx="90.26448516476971" cy="-22.581707660552464" r="10"></circle><circle fill="#0f0" cx="-21.315033446925888" cy="-12.004824286545734" r="10"></circle><circle fill="#0f0" cx="17.10849882602484" cy="94.85815325668509" r="10"></circle><circle fill="#0f0" cx="2.998171081167214" cy="-77.30923978130564" r="10"></circle><circle fill="grey" cx="-105.7287735445659" cy="-3.6197480158589697" r="10"></circle><circle fill="grey" cx="-38.53622855729323" cy="-116.77616928271009" r="10"></circle><circle fill="grey" cx="-64.80209741506306" cy="-64.42706386960896" r="10"></circle><circle fill="grey" cx="25.77975031935447" cy="118.44634751453555" r="10"></circle><circle fill="grey" cx="-43.93680824635832" cy="-51.69078748056744" r="10"></circle><circle fill="grey" cx="-73.48071756537648" cy="-0.993872886103559" r="10"></circle><circle fill="grey" cx="131.0205852105858" cy="-19.82250262879435" r="10"></circle><circle fill="grey" cx="11.921168140355071" cy="-131.00927566064323" r="10"></circle><circle fill="grey" cx="42.91891265977631" cy="82.50327238630075" r="10"></circle><circle fill="grey" cx="22.431021640632377" cy="-85.39418245179716" r="10"></circle><circle fill="grey" cx="-7.141846985982755" cy="37.3850897300561" r="10"></circle><circle fill="grey" cx="-124.24927008825654" cy="39.84055639447518" r="10"></circle><circle fill="grey" cx="116.0724982987058" cy="-63.60799817559775" r="10"></circle><circle fill="grey" cx="-98.9178355765809" cy="47.562390655453704" r="10"></circle><circle fill="grey" cx="8.162454715973917" cy="-49.99667473976937" r="10"></circle><circle fill="grey" cx="112.1198307392697" cy="-9.319809386048988" r="10"></circle><circle fill="grey" cx="129.508911319117" cy="12.889849013885735" r="10"></circle><circle fill="grey" cx="97.85041900715831" cy="-80.74671726299721" r="10"></circle><circle fill="grey" cx="109.14623181947968" cy="76.74361979302294" r="10"></circle><circle fill="grey" cx="-41.25338471382009" cy="-82.15478248123907" r="10"></circle><circle fill="grey" cx="47.14704824476604" cy="-95.54858629420036" r="10"></circle><circle fill="grey" cx="-53.59051484583755" cy="91.39224709060038" r="10"></circle><circle fill="grey" cx="-4.632864863260799" cy="104.0307966327489" r="10"></circle><circle fill="grey" cx="-1.9291353495158916" cy="71.21406964868281" r="10"></circle><circle fill="grey" cx="18.647630802468726" cy="1.5300103324484489" r="10"></circle></g></g></svg>