<svg id="dots" width="150" height="150"><g transform="translate(75,75)"><g><circle fill="#0f0" cx="-2.6441525738386886" cy="51.19017668926603" r="10"></circle><circle fill="#0f0" cx="-20.737876934950485" cy="28.327224831426022" r="10"></circle><circle fill="#0f0" cx="42.20304038537337" cy="-9.231684112829795" r="10"></circle><circle fill="#0f0" cx="-44.11663117577836" cy="-24.736424179523993" r="10"></circle><circle fill="#0f0" cx="17.84984205062769" cy="-7.132724204002887" r="10"></circle><circle fill="grey" cx="-20.867300783455377" cy="0.03792720910928963" r="10"></circle><circle fill="grey" cx="21.925520080944388" cy="-37.84573540038228" r="10"></circle><circle fill="grey" cx="53.02987261667444" cy="9.779227813082507" r="10"></circle><circle fill="grey" cx="23.393749456428456" cy="47.005426085858524" r="10"></circle><circle fill="grey" cx="-47.31014130660445" cy="-3.897942648233972" r="10"></circle><circle fill="grey" cx="16.691591504052077" cy="15.596417630850796" r="10"></circle><circle fill="grey" cx="-46.88429585143375" cy="17.87836957707627" r="10"></circle><circle fill="grey" cx="38.860299514674196" cy="29.161724962027485" r="10"></circle><circle fill="grey" cx="-7.560385981789194" cy="-35.966522070875826" r="10"></circle><circle fill="grey" cx="-34.88998761929102" cy="43.365564131089684" r="10"></circle><circle fill="grey" cx="-29.469234867212432" cy="-43.37705381254271" r="10"></circle><circle fill="grey" cx="3.4756623046999064" cy="-54.974955390753635" r="10"></circle><circle fill="grey" cx="-1.3946323806122267" cy="23.239092051657757" r="10"></circle><circle fill="grey" cx="-3.3297909858337764" cy="-15.27055717579809" r="10"></circle><circle fill="grey" cx="43.784070610481685" cy="-32.1803244628437" r="10"></circle></g></g></svg>