<svg id="dots" width="150" height="150"><g transform="translate(75,75)"><g><circle fill="#0f0" cx="27.385692429543035" cy="-20.350085765634756" r="10"></circle><circle fill="#0f0" cx="-32.10510869317599" cy="12.206185727258411" r="10"></circle><circle fill="#0f0" cx="24.355145257770566" cy="23.987623964090215" r="10"></circle><circle fill="#0f0" cx="-33.401795429355694" cy="-18.29291055031926" r="10"></circle><circle fill="#0f0" cx="7.1139766324189555" cy="4.435495781156894" r="10"></circle><circle fill="#0f0" cx="-43.616694123875384" cy="-36.41554800784371" r="10"></circle><circle fill="#0f0" cx="29.02318765848845" cy="45.57184966588905" r="10"></circle><circle fill="#0f0" cx="50.78943564857757" cy="17.320260232446255" r="10"></circle><circle fill="#0f0" cx="-42.74941377934446" cy="34.404899973727275" r="10"></circle><circle fill="#0f0" cx="-18.387221892518205" cy="-47.33416034412139" r="10"></circle><circle fill="#0f0" cx="52.11041285798872" cy="-15.961996798323893" r="10"></circle><circle fill="#0f0" cx="-53.36975787016157" cy="0.34941166723044126" r="10"></circle><circle fill="#0f0" cx="-20.846612616814795" cy="42.04524066555887" r="10"></circle><circle fill="#0f0" cx="32.34814122075233" cy="-44.01742831462274" r="10"></circle><circle fill="#0f0" cx="-14.195449400557143" cy="-6.07425624805107" r="10"></circle><circle fill="grey" cx="5.91242041863449" cy="-49.21962203632125" r="10"></circle><circle fill="grey" cx="2.2497656299774587" cy="-23.654059466231544" r="10"></circle><circle fill="grey" cx="31.329989671007166" cy="1.6822068989527785" r="10"></circle><circle fill="grey" cx="-5.096412581538717" cy="25.203508363890432" r="10"></circle><circle fill="grey" cx="2.922588673568075" cy="51.44007291801704" r="10"></circle></g></g></svg>