<svg id="dots" width="400" height="400"><g transform="translate(200,200)"><g><circle fill="#0f0" cx="-117.9166345328177" cy="39.206300590815566" r="10"></circle><circle fill="#0f0" cx="43.82987807390611" cy="5.304336790811771" r="10"></circle><circle fill="#0f0" cx="-18.65743822275616" cy="19.635632896228888" r="10"></circle><circle fill="#0f0" cx="68.85613376516187" cy="102.46980148379282" r="10"></circle><circle fill="#0f0" cx="-43.03995493707122" cy="124.39992943628725" r="10"></circle><circle fill="#0f0" cx="-56.171086565525734" cy="-101.7508181776077" r="10"></circle><circle fill="#0f0" cx="89.60566272472484" cy="96.37748596093111" r="10"></circle><circle fill="#0f0" cx="90.21210173665133" cy="56.207887116643796" r="10"></circle><circle fill="#0f0" cx="-91.34077612530382" cy="95.95730147782433" r="10"></circle><circle fill="#0f0" cx="131.21121588760167" cy="17.698591126153204" r="10"></circle><circle fill="#0f0" cx="-30.25261075170589" cy="103.15451271296425" r="10"></circle><circle fill="#0f0" cx="19.209102899989624" cy="131.3481184109207" r="10"></circle><circle fill="#0f0" cx="14.80134527244822" cy="-35.70937521761326" r="10"></circle><circle fill="#0f0" cx="83.03701197657894" cy="0.5225784231677076" r="10"></circle><circle fill="#0f0" cx="-100.89395000467479" cy="-4.382094706008851" r="10"></circle><circle fill="#0f0" cx="128.78220611531896" cy="-15.968789886149114" r="10"></circle><circle fill="#0f0" cx="-35.12105919460155" cy="44.6356551219729" r="10"></circle><circle fill="#0f0" cx="-59.0806021555307" cy="-52.12930780392615" r="10"></circle><circle fill="#0f0" cx="-41.06477675337935" cy="-76.15814518896333" r="10"></circle><circle fill="#0f0" cx="26.183676034941087" cy="-75.34162450046023" r="10"></circle><circle fill="#0f0" cx="113.30224752403323" cy="0.7318369771740145" r="10"></circle><circle fill="#0f0" cx="-60.04550642701299" cy="3.4758303992036046" r="10"></circle><circle fill="#0f0" cx="-42.11854528540159" cy="17.257805229330888" r="10"></circle><circle fill="#0f0" cx="-38.12143697857183" cy="-127.18399975983984" r="10"></circle><circle fill="#0f0" cx="96.51087226669667" cy="21.404445100789843" r="10"></circle><circle fill="grey" cx="50.73285098071331" cy="121.1684349240167" r="10"></circle><circle fill="grey" cx="114.03643245570102" cy="-33.76366522000716" r="10"></circle><circle fill="grey" cx="-56.32813451972604" cy="66.00272758611281" r="10"></circle><circle fill="grey" cx="-114.7923439963518" cy="-52.2754822475836" r="10"></circle><circle fill="grey" cx="-85.22624420299256" cy="-57.17785384842687" r="10"></circle><circle fill="grey" cx="81.54527372326432" cy="-97.66015772742448" r="10"></circle><circle fill="grey" cx="-14.388802340008365" cy="129.57162978648515" r="10"></circle><circle fill="grey" cx="-109.45914882670868" cy="17.65195235205846" r="10"></circle><circle fill="grey" cx="16.975566050017704" cy="78.88460117784713" r="10"></circle><circle fill="grey" cx="-79.97761168128156" cy="-4.050915596139752" r="10"></circle><circle fill="grey" cx="-70.91485237454738" cy="-28.63856771809443" r="10"></circle><circle fill="grey" cx="-78.68484065133514" cy="71.3690906823427" r="10"></circle><circle fill="grey" cx="65.98914992923345" cy="18.071703111100575" r="10"></circle><circle fill="grey" cx="-0.9282920134120504" cy="36.900374311407" r="10"></circle><circle fill="grey" cx="51.18298280043888" cy="-73.32014186155627" r="10"></circle><circle fill="grey" cx="-116.56283806230181" cy="58.88406270017689" r="10"></circle><circle fill="grey" cx="35.32824157766649" cy="56.1216154133462" r="10"></circle><circle fill="grey" cx="24.29615764779821" cy="18.121739183123015" r="10"></circle><circle fill="grey" cx="40.60469059994894" cy="-122.88132622474501" r="10"></circle><circle fill="grey" cx="-0.39452830746206086" cy="-68.89861504487948" r="10"></circle><circle fill="grey" cx="103.63536580755586" cy="-81.89820923519223" r="10"></circle><circle fill="grey" cx="11.055409910503677" cy="-133.1526855051488" r="10"></circle><circle fill="grey" cx="-36.52615796352358" cy="76.87136708767888" r="10"></circle><circle fill="grey" cx="-86.09809850512191" cy="23.975396725286114" r="10"></circle><circle fill="grey" cx="33.33583755392857" cy="-53.376514380619575" r="10"></circle><circle fill="grey" cx="6.807325056832303" cy="111.6393949346384" r="10"></circle><circle fill="grey" cx="119.35377633571855" cy="58.0689684844476" r="10"></circle><circle fill="grey" cx="-43.17593535314226" cy="-13.809196630328623" r="10"></circle><circle fill="grey" cx="60.74277513562999" cy="-47.839910718606895" r="10"></circle><circle fill="grey" cx="-132.30649522869408" cy="12.61432179895726" r="10"></circle><circle fill="grey" cx="-9.859933629729797" cy="97.76539088342822" r="10"></circle><circle fill="grey" cx="7.125355620624226" cy="-94.21050736843382" r="10"></circle><circle fill="grey" cx="16.387883107669044" cy="-113.08378127533148" r="10"></circle><circle fill="grey" cx="-15.099311077527311" cy="55.493558550505206" r="10"></circle><circle fill="grey" cx="62.07017128014217" cy="-13.10835346916682" r="10"></circle><circle fill="grey" cx="46.49795480142764" cy="72.02855652030901" r="10"></circle><circle fill="grey" cx="74.14001432883106" cy="-73.14735578951631" r="10"></circle><circle fill="grey" cx="-82.16342708398402" cy="45.49227334211219" r="10"></circle><circle fill="grey" cx="-16.436921548070178" cy="-90.49992265531893" r="10"></circle><circle fill="grey" cx="112.58922982411572" cy="37.43945067590899" r="10"></circle><circle fill="grey" cx="-53.28460341066991" cy="97.31656097610087" r="10"></circle><circle fill="grey" cx="-5.10193592213754" cy="75.48779328345533" r="10"></circle><circle fill="grey" cx="64.73519667258105" cy="-113.32517299317658" r="10"></circle><circle fill="grey" cx="119.32700055691751" cy="-55.70040089975018" r="10"></circle><circle fill="grey" cx="94.15232609765681" cy="-58.54732844551236" r="10"></circle><circle fill="grey" cx="81.30503290119943" cy="-39.58298872833437" r="10"></circle><circle fill="grey" cx="-88.90546019666006" cy="-89.77158505797594" r="10"></circle><circle fill="grey" cx="-75.22195924627323" cy="-109.54524080185014" r="10"></circle><circle fill="grey" cx="25.131498147410362" cy="-13.247894307624708" r="10"></circle><circle fill="grey" cx="-118.31029492197206" cy="-15.62283321199726" r="10"></circle><circle fill="grey" cx="-33.98684532112265" cy="-103.65754475754622" r="10"></circle><circle fill="grey" cx="48.88059901135447" cy="33.629976185915005" r="10"></circle><circle fill="grey" cx="-9.507940942022218" cy="-25.272554875471187" r="10"></circle><circle fill="grey" cx="-102.05551275485674" cy="73.67763016609325" r="10"></circle><circle fill="grey" cx="-40.87893091711664" cy="-34.820229154741256" r="10"></circle><circle fill="grey" cx="28.28749682797533" cy="105.39675724518695" r="10"></circle><circle fill="grey" cx="-5.89454616483009" cy="-48.33656331134273" r="10"></circle><circle fill="grey" cx="93.58619885562054" cy="-19.190961301199675" r="10"></circle><circle fill="grey" cx="-128.74107916235818" cy="-32.50683526574311" r="10"></circle><circle fill="grey" cx="-58.83301210181392" cy="37.96518485820776" r="10"></circle><circle fill="grey" cx="43.797497792846315" cy="-29.825452946479597" r="10"></circle><circle fill="grey" cx="-105.0862550853468" cy="-73.64933790657999" r="10"></circle><circle fill="grey" cx="40.27087053177896" cy="-98.10017910043969" r="10"></circle><circle fill="grey" cx="46.73928534454194" cy="94.6304199949123" r="10"></circle><circle fill="grey" cx="-29.14613934020843" cy="-55.97537309871" r="10"></circle><circle fill="grey" cx="-95.1177858970263" cy="-34.06997362316864" r="10"></circle><circle fill="grey" cx="5.011150836993516" cy="4.10056329079025" r="10"></circle><circle fill="grey" cx="73.27626636059675" cy="40.60249425548622" r="10"></circle><circle fill="grey" cx="-71.25750316664214" cy="105.73493783876599" r="10"></circle><circle fill="grey" cx="-16.946705863325118" cy="-5.36283450641382" r="10"></circle><circle fill="grey" cx="-12.337441592124591" cy="-123.2869448732116" r="10"></circle><circle fill="grey" cx="69.60022648341857" cy="70.28266992096707" r="10"></circle><circle fill="grey" cx="-66.12724977232786" cy="-75.8702285537704" r="10"></circle><circle fill="grey" cx="102.00221010692695" cy="76.89131600231823" r="10"></circle><circle fill="grey" cx="19.454338328407864" cy="43.7736013981181" r="10"></circle></g></g></svg>