<svg id="dots" width="150" height="150"><g transform="translate(75,75)"><g><circle fill="#f00" cx="24.51949408391562" cy="-3.14048007349536" r="10"></circle><circle fill="#f00" cx="-0.6048591296094591" cy="-49.32526237800297" r="10"></circle><circle fill="#f00" cx="4.702077002925431" cy="11.173220992404437" r="10"></circle><circle fill="#f00" cx="24.52082814828423" cy="-48.32960216688502" r="10"></circle><circle fill="#f00" cx="28.739114085634316" cy="46.793397541285906" r="10"></circle><circle fill="#f00" cx="8.567760324221753" cy="35.3700766658786" r="10"></circle><circle fill="#f00" cx="-31.656966523306053" cy="42.734285052065964" r="10"></circle><circle fill="#f00" cx="-48.915155663481016" cy="20.65012080106573" r="10"></circle><circle fill="#f00" cx="-6.839920943047623" cy="51.033594380119254" r="10"></circle><circle fill="#f00" cx="51.28540360431154" cy="-14.042783893831263" r="10"></circle><circle fill="#f00" cx="-27.336602911767404" cy="-47.73414306927075" r="10"></circle><circle fill="#f00" cx="32.29118440131081" cy="23.487578791559628" r="10"></circle><circle fill="#f00" cx="-14.597374757181033" cy="-2.436585712453867" r="10"></circle><circle fill="#f00" cx="-44.38920838366179" cy="-1.6300639749633918" r="10"></circle><circle fill="#f00" cx="32.51598524029648" cy="-28.208646184839722" r="10"></circle><circle fill="grey" cx="-47.63169925722931" cy="-23.771290596566686" r="10"></circle><circle fill="grey" cx="-20.31533966290534" cy="-26.32703685949914" r="10"></circle><circle fill="grey" cx="5.151454409855637" cy="-21.183251356118998" r="10"></circle><circle fill="grey" cx="-20.38999726396699" cy="21.077934034750573" r="10"></circle><circle fill="grey" cx="50.76687433675331" cy="12.8633127175791" r="10"></circle></g></g></svg>