<svg id="dots" width="400" height="400"><g transform="translate(200,200)"><g><circle fill="#f00" cx="-2.1337081281371986" cy="41.56314327697447" r="10"></circle><circle fill="#f00" cx="-25.440886134103472" cy="-97.05749524001185" r="10"></circle><circle fill="#f00" cx="17.987898829869938" cy="20.862092867477877" r="10"></circle><circle fill="#f00" cx="-4.842454449169135" cy="-107.1898868060763" r="10"></circle><circle fill="#f00" cx="72.48586553798094" cy="-79.35366943759787" r="10"></circle><circle fill="#f00" cx="-48.70461174281695" cy="66.40928714159317" r="10"></circle><circle fill="#f00" cx="-106.67468971010658" cy="78.0779574462164" r="10"></circle><circle fill="#f00" cx="27.99493893305565" cy="-92.33013603340099" r="10"></circle><circle fill="#f00" cx="-69.67487122939858" cy="45.47656528012903" r="10"></circle><circle fill="#f00" cx="78.4935381660683" cy="105.46757112733317" r="10"></circle><circle fill="#f00" cx="43.49811848347061" cy="62.536541155127956" r="10"></circle><circle fill="#f00" cx="110.96505908040801" cy="69.24797239914216" r="10"></circle><circle fill="#f00" cx="90.69096415374452" cy="27.298755208273022" r="10"></circle><circle fill="#f00" cx="-17.342888186320145" cy="14.372266424589657" r="10"></circle><circle fill="#f00" cx="92.41901711604385" cy="87.7971826370642" r="10"></circle><circle fill="#f00" cx="78.93013160650032" cy="64.63144965471427" r="10"></circle><circle fill="#f00" cx="17.722515388612226" cy="64.8894042004268" r="10"></circle><circle fill="#f00" cx="-59.75381904446686" cy="-86.42394495269338" r="10"></circle><circle fill="#f00" cx="20.831992000164288" cy="-12.36238449189235" r="10"></circle><circle fill="#f00" cx="-46.497531020787704" cy="45.017830583443434" r="10"></circle><circle fill="#f00" cx="16.309968673112724" cy="-75.04125366724378" r="10"></circle><circle fill="#f00" cx="-58.967463082604425" cy="-37.715815255119146" r="10"></circle><circle fill="#f00" cx="-69.19790055506508" cy="-17.51737933967355" r="10"></circle><circle fill="#f00" cx="-44.218315089849426" cy="-113.47421401336479" r="10"></circle><circle fill="#f00" cx="-87.63005797366868" cy="-34.32826386475503" r="10"></circle><circle fill="grey" cx="-46.11473190174268" cy="20.55095043407928" r="10"></circle><circle fill="grey" cx="133.13876322557783" cy="2.1029233373868728" r="10"></circle><circle fill="grey" cx="36.47114485081243" cy="125.60951559663603" r="10"></circle><circle fill="grey" cx="-104.81032947172415" cy="-20.095336842315316" r="10"></circle><circle fill="grey" cx="13.098808830879017" cy="110.66312520336002" r="10"></circle><circle fill="grey" cx="-12.219212253444137" cy="-46.688622016736055" r="10"></circle><circle fill="grey" cx="49.671730310732734" cy="-13.598449308150851" r="10"></circle><circle fill="grey" cx="-82.14402880306602" cy="69.46725233971064" r="10"></circle><circle fill="grey" cx="-26.620496773305984" cy="-128.7862013829223" r="10"></circle><circle fill="grey" cx="-10.703352180052537" cy="95.06244253409601" r="10"></circle><circle fill="grey" cx="-93.90907909986761" cy="1.9178596808560362" r="10"></circle><circle fill="grey" cx="56.39421367922918" cy="44.08229866233951" r="10"></circle><circle fill="grey" cx="-5.991096269930365" cy="68.6754711140204" r="10"></circle><circle fill="grey" cx="-81.51297028142213" cy="-74.70352213377132" r="10"></circle><circle fill="grey" cx="-128.61005774949496" cy="-22.44281210331651" r="10"></circle><circle fill="grey" cx="122.52903737063042" cy="-24.202272680781007" r="10"></circle><circle fill="grey" cx="-34.87483542236479" cy="-73.37712888485432" r="10"></circle><circle fill="grey" cx="109.53659987026093" cy="-0.6809189472223484" r="10"></circle><circle fill="grey" cx="-63.273123020446754" cy="87.13373918714561" r="10"></circle><circle fill="grey" cx="-23.863886578959274" cy="40.771370162418954" r="10"></circle><circle fill="grey" cx="-109.16899199827479" cy="-74.30303207587475" r="10"></circle><circle fill="grey" cx="-15.386926558645927" cy="120.19164736579545" r="10"></circle><circle fill="grey" cx="1.9330626445479504" cy="-131.97962589799147" r="10"></circle><circle fill="grey" cx="-8.493013972890832" cy="-76.61263316580713" r="10"></circle><circle fill="grey" cx="-93.61689703769858" cy="-55.68109843204052" r="10"></circle><circle fill="grey" cx="49.95708495177329" cy="-89.21084326111338" r="10"></circle><circle fill="grey" cx="-35.72764166852405" cy="-45.846726113480536" r="10"></circle><circle fill="grey" cx="-84.87561037478002" cy="99.05739593664585" r="10"></circle><circle fill="grey" cx="18.53511761390627" cy="-35.977797890109166" r="10"></circle><circle fill="grey" cx="61.70910039032942" cy="80.22169914642987" r="10"></circle><circle fill="grey" cx="64.6171948288779" cy="26.882159621887755" r="10"></circle><circle fill="grey" cx="75.41138568633889" cy="-58.801770283356426" r="10"></circle><circle fill="grey" cx="119.14564874264211" cy="24.38212432919163" r="10"></circle><circle fill="grey" cx="37.07069315069683" cy="-125.48604926503234" r="10"></circle><circle fill="grey" cx="-63.43486405651871" cy="113.67726080495363" r="10"></circle><circle fill="grey" cx="2.8165449603046064" cy="4.135805496797352" r="10"></circle><circle fill="grey" cx="-88.23093451251175" cy="-98.31913222600906" r="10"></circle><circle fill="grey" cx="-66.79262606925961" cy="-113.6132802799688" r="10"></circle><circle fill="grey" cx="123.02501808423607" cy="46.16402175521927" r="10"></circle><circle fill="grey" cx="58.249016153776765" cy="-113.71503207379837" r="10"></circle><circle fill="grey" cx="79.03917575730227" cy="-102.88127043633646" r="10"></circle><circle fill="grey" cx="91.68904297134128" cy="-39.43676191077033" r="10"></circle><circle fill="grey" cx="-96.19827726350523" cy="46.770425993462965" r="10"></circle><circle fill="grey" cx="-28.562813221434393" cy="77.3656139295574" r="10"></circle><circle fill="grey" cx="-108.14466195833877" cy="24.78793292141415" r="10"></circle><circle fill="grey" cx="-63.903324604473084" cy="3.210850243406393" r="10"></circle><circle fill="grey" cx="39.67349740769256" cy="95.94402614892853" r="10"></circle><circle fill="grey" cx="18.216461864391807" cy="-113.21138793847199" r="10"></circle><circle fill="grey" cx="-30.33469679383528" cy="-21.483919558574172" r="10"></circle><circle fill="grey" cx="83.82409510153124" cy="1.2319796764445035" r="10"></circle><circle fill="grey" cx="121.72492394600255" cy="-47.0198854691233" r="10"></circle><circle fill="grey" cx="-38.57553628916348" cy="125.30091507869179" r="10"></circle><circle fill="grey" cx="9.965432229672567" cy="-55.51973970586044" r="10"></circle><circle fill="grey" cx="-5.761389188184393" cy="-19.9833368304743" r="10"></circle><circle fill="grey" cx="-79.43948913507728" cy="24.80463930309595" r="10"></circle><circle fill="grey" cx="96.43430172495331" cy="49.64090467796669" r="10"></circle><circle fill="grey" cx="105.13794729985756" cy="-63.94507715568836" r="10"></circle><circle fill="grey" cx="62.21273565236778" cy="2.411333253545856" r="10"></circle><circle fill="grey" cx="-59.17258841351133" cy="-60.622998248052326" r="10"></circle><circle fill="grey" cx="-37.176647225204405" cy="-2.1237374823070168" r="10"></circle><circle fill="grey" cx="-39.6544841731133" cy="99.18182121246015" r="10"></circle><circle fill="grey" cx="-123.51163648680074" cy="-0.11517933024730853" r="10"></circle><circle fill="grey" cx="61.53673815260763" cy="-41.334626292940484" r="10"></circle><circle fill="grey" cx="17.41563640146072" cy="86.84832342987761" r="10"></circle><circle fill="grey" cx="-119.31429324147757" cy="-47.096008812981715" r="10"></circle><circle fill="grey" cx="41.88874119152205" cy="-33.31815109901145" r="10"></circle><circle fill="grey" cx="100.65159362665254" cy="-85.79736707691923" r="10"></circle><circle fill="grey" cx="41.86505932733549" cy="-62.152336292994875" r="10"></circle><circle fill="grey" cx="5.946655950815437" cy="132.56844022906475" r="10"></circle><circle fill="grey" cx="-131.58116082290528" cy="24.822001540569943" r="10"></circle><circle fill="grey" cx="38.53141179770012" cy="13.304449637927828" r="10"></circle><circle fill="grey" cx="94.8276474460319" cy="-18.27354955575806" r="10"></circle><circle fill="grey" cx="-117.71538207272141" cy="54.15134225507941" r="10"></circle><circle fill="grey" cx="56.92073371772456" cy="110.70571179831295" r="10"></circle><circle fill="grey" cx="25.490908300670164" cy="41.91084115008764" r="10"></circle></g></g></svg>