<svg id="dots" width="150" height="150"><g transform="translate(75,75)"><g><circle fill="#f00" cx="-0.39380551607258274" cy="23.79911133555604" r="10"></circle><circle fill="#f00" cx="21.129711552078113" cy="45.83359674192685" r="10"></circle><circle fill="#f00" cx="0.17550498906079537" cy="-29.340663435818968" r="10"></circle><circle fill="#f00" cx="-49.59442150507095" cy="-19.865843130021354" r="10"></circle><circle fill="#f00" cx="49.20280507414358" cy="-22.09832221714703" r="10"></circle><circle fill="grey" cx="42.60856986689513" cy="31.521379945573187" r="10"></circle><circle fill="grey" cx="24.161508475743414" cy="17.022546247789876" r="10"></circle><circle fill="grey" cx="-1.9680135256707556" cy="-2.6036373006625992" r="10"></circle><circle fill="grey" cx="50.642726227304514" cy="5.2560734288801525" r="10"></circle><circle fill="grey" cx="21.339677780109866" cy="-49.23162071113039" r="10"></circle><circle fill="grey" cx="-1.9921812602638502" cy="50.64983849142867" r="10"></circle><circle fill="grey" cx="-21.17466834855497" cy="-16.93861983837913" r="10"></circle><circle fill="grey" cx="-23.78049819693779" cy="16.935203919264588" r="10"></circle><circle fill="grey" cx="-44.17872081801647" cy="1.947150538007292" r="10"></circle><circle fill="grey" cx="-33.17051807569528" cy="-40.4453650531302" r="10"></circle><circle fill="grey" cx="21.716816892859477" cy="-5.408549454332554" r="10"></circle><circle fill="grey" cx="-47.83791591268937" cy="25.674889861253504" r="10"></circle><circle fill="grey" cx="27.22955222054648" cy="-27.512046326469193" r="10"></circle><circle fill="grey" cx="-25.80778593773626" cy="44.53614832920615" r="10"></circle><circle fill="grey" cx="-8.39048294790437" cy="-52.11388626149166" r="10"></circle></g></g></svg>