<svg id="dots" width="400" height="400"><g transform="translate(200,200)"><g><circle fill="#f00" cx="10.911897238086043" cy="-54.653219473075055" r="10"></circle><circle fill="#f00" cx="-118.09681094439546" cy="-56.60150183441148" r="10"></circle><circle fill="#f00" cx="-84.72203760164517" cy="-67.90942135705731" r="10"></circle><circle fill="#f00" cx="109.0248264329268" cy="11.350403941585661" r="10"></circle><circle fill="#f00" cx="130.99958184359545" cy="0.14926396048365012" r="10"></circle><circle fill="#f00" cx="95.79271415755827" cy="92.3811100684488" r="10"></circle><circle fill="#f00" cx="-87.82509340411059" cy="-22.251326185510738" r="10"></circle><circle fill="#f00" cx="72.77398282833684" cy="27.64879221821832" r="10"></circle><circle fill="#f00" cx="-14.30605771908507" cy="133.60456149447572" r="10"></circle><circle fill="#f00" cx="-30.13122425729357" cy="9.839679005227136" r="10"></circle><circle fill="#f00" cx="-128.82773786089882" cy="-28.48596256293947" r="10"></circle><circle fill="#f00" cx="-63.5606536858181" cy="89.8187204986331" r="10"></circle><circle fill="#f00" cx="-96.67075969257452" cy="42.283052233710336" r="10"></circle><circle fill="#f00" cx="-81.48938031433035" cy="-0.6147843633055479" r="10"></circle><circle fill="#f00" cx="-59.062289621150725" cy="-64.15755268767809" r="10"></circle><circle fill="#f00" cx="15.80010961073665" cy="129.57858430917017" r="10"></circle><circle fill="#f00" cx="83.26381838804855" cy="55.9650330028486" r="10"></circle><circle fill="#f00" cx="-113.35088923189052" cy="-9.479445952101571" r="10"></circle><circle fill="#f00" cx="-121.47337484235449" cy="51.81387652603748" r="10"></circle><circle fill="#f00" cx="27.55723777144812" cy="-124.94244569653883" r="10"></circle><circle fill="#f00" cx="-100.96484639485608" cy="12.242422775941654" r="10"></circle><circle fill="#f00" cx="8.807317238932507" cy="-91.06112337306965" r="10"></circle><circle fill="#f00" cx="50.60973006453663" cy="-70.26483784730381" r="10"></circle><circle fill="#f00" cx="-66.64324774001591" cy="-88.95246220844255" r="10"></circle><circle fill="#f00" cx="-76.52165287561331" cy="26.8906647988025" r="10"></circle><circle fill="#f00" cx="106.13289220156392" cy="-16.4648058469894" r="10"></circle><circle fill="#f00" cx="82.26897683402663" cy="-24.81235528405825" r="10"></circle><circle fill="#f00" cx="92.72732498233046" cy="-46.105282677380636" r="10"></circle><circle fill="#f00" cx="49.01440657220396" cy="-98.50252853430423" r="10"></circle><circle fill="#f00" cx="-91.01912433112734" cy="86.84110470532106" r="10"></circle><circle fill="#f00" cx="-23.13707810932149" cy="-60.326363826347276" r="10"></circle><circle fill="#f00" cx="116.76605218014114" cy="49.808475406603186" r="10"></circle><circle fill="#f00" cx="9.762247763999087" cy="-111.14444552658068" r="10"></circle><circle fill="#f00" cx="-38.27937569081527" cy="-109.76638504054691" r="10"></circle><circle fill="#f00" cx="-26.23661014044888" cy="-22.714798849880157" r="10"></circle><circle fill="#f00" cx="69.13274080269397" cy="-52.48828061099694" r="10"></circle><circle fill="#f00" cx="-85.68567075561434" cy="-101.08714351923172" r="10"></circle><circle fill="#f00" cx="-10.031331294448758" cy="0.1102907786866036" r="10"></circle><circle fill="#f00" cx="-51.760313810998866" cy="119.38224342535418" r="10"></circle><circle fill="#f00" cx="-19.281262048627212" cy="-93.82675031764322" r="10"></circle><circle fill="#f00" cx="108.64062855023228" cy="-71.40643061178973" r="10"></circle><circle fill="#f00" cx="50.50208120230555" cy="-38.767062292895645" r="10"></circle><circle fill="#f00" cx="61.286088525978215" cy="119.14895499140582" r="10"></circle><circle fill="#f00" cx="76.11702286503412" cy="91.47860781303106" r="10"></circle><circle fill="#f00" cx="-6.8175087864731045" cy="85.40851199339696" r="10"></circle><circle fill="#f00" cx="118.68209508807645" cy="-48.448896804414666" r="10"></circle><circle fill="#f00" cx="-8.593193169621149" cy="30.294116308980247" r="10"></circle><circle fill="#f00" cx="31.606320230685487" cy="-49.88222329437611" r="10"></circle><circle fill="#f00" cx="-1.9984230147904412" cy="-129.40955143597702" r="10"></circle><circle fill="#f00" cx="12.346007159218562" cy="-6.709858648403663" r="10"></circle><circle fill="#f00" cx="-3.6252809246721402" cy="-73.1483849655798" r="10"></circle><circle fill="#f00" cx="127.52112069692897" cy="29.34484535181878" r="10"></circle><circle fill="#f00" cx="39.50854039800916" cy="60.39224241043852" r="10"></circle><circle fill="#f00" cx="-50.22607027195966" cy="-4.991470024893861" r="10"></circle><circle fill="#f00" cx="81.3136099762188" cy="-71.77525643258144" r="10"></circle><circle fill="#f00" cx="-9.089356124803482" cy="-38.20916102329015" r="10"></circle><circle fill="#f00" cx="127.09979725838815" cy="-25.592400218560876" r="10"></circle><circle fill="#f00" cx="89.71348821429063" cy="-91.91208850893523" r="10"></circle><circle fill="#f00" cx="34.99855442169982" cy="118.35074454695213" r="10"></circle><circle fill="#f00" cx="21.17298566457787" cy="40.32990720417394" r="10"></circle><circle fill="#f00" cx="107.07884551490417" cy="70.75855598915507" r="10"></circle><circle fill="#f00" cx="-103.24546513572041" cy="-39.88974430108047" r="10"></circle><circle fill="#f00" cx="-51.529473139029626" cy="44.388296004526225" r="10"></circle><circle fill="#f00" cx="36.3906078926705" cy="-8.419914305516194" r="10"></circle><circle fill="#f00" cx="-76.90024091811686" cy="106.56772404934352" r="10"></circle><circle fill="#f00" cx="17.40022133516871" cy="72.39819981753155" r="10"></circle><circle fill="#f00" cx="-104.89286419000703" cy="-79.60943838041192" r="10"></circle><circle fill="#f00" cx="14.768880518084528" cy="15.631249837354973" r="10"></circle><circle fill="#f00" cx="-31.697587021767028" cy="98.85766837386164" r="10"></circle><circle fill="#f00" cx="60.214049577023864" cy="6.8657939477725325" r="10"></circle><circle fill="#f00" cx="-59.9809391588407" cy="-116.34357354754866" r="10"></circle><circle fill="#f00" cx="0.2212007802366272" cy="54.85844067412654" r="10"></circle><circle fill="#f00" cx="-56.58664241265876" cy="17.263087808272427" r="10"></circle><circle fill="#f00" cx="-74.05889822337355" cy="-42.6162597913781" r="10"></circle><circle fill="#f00" cx="-118.96293492269079" cy="28.605301547306382" r="10"></circle><circle fill="grey" cx="96.26676911539812" cy="34.38070680302357" r="10"></circle><circle fill="grey" cx="-131.78650869443476" cy="7.154680096937867" r="10"></circle><circle fill="grey" cx="31.636579038240527" cy="-83.93370020844301" r="10"></circle><circle fill="grey" cx="-20.489841635299666" cy="115.75257203416506" r="10"></circle><circle fill="grey" cx="38.45599096924162" cy="22.67178316363846" r="10"></circle><circle fill="grey" cx="-57.6108494693336" cy="64.65072190875958" r="10"></circle><circle fill="grey" cx="30.187029864090814" cy="91.45216122084226" r="10"></circle><circle fill="grey" cx="-78.57752424517273" cy="57.00750475833321" r="10"></circle><circle fill="grey" cx="-40.738969521868434" cy="79.79183292053956" r="10"></circle><circle fill="grey" cx="-41.35063875542864" cy="-47.537279077233826" r="10"></circle><circle fill="grey" cx="56.37373844898996" cy="44.60579158916453" r="10"></circle><circle fill="grey" cx="6.0627366549216095" cy="106.48528523367311" r="10"></circle><circle fill="grey" cx="-31.09693633816163" cy="37.942727663293354" r="10"></circle><circle fill="grey" cx="-21.155343764401618" cy="63.39345398907762" r="10"></circle><circle fill="grey" cx="-24.698712504130143" cy="-127.85777302528061" r="10"></circle><circle fill="grey" cx="50.15368856041731" cy="-122.07304580324859" r="10"></circle><circle fill="grey" cx="62.00678944516397" cy="71.15334209376691" r="10"></circle><circle fill="grey" cx="-55.82431060444717" cy="-25.87259439470035" r="10"></circle><circle fill="grey" cx="54.138694611293374" cy="96.96412471406234" r="10"></circle><circle fill="grey" cx="-105.696478361205" cy="70.470881088012" r="10"></circle><circle fill="grey" cx="72.34027952986264" cy="-106.5939693208549" r="10"></circle><circle fill="grey" cx="13.55602281457621" cy="-27.199000700587675" r="10"></circle><circle fill="grey" cx="58.82976882288555" cy="-17.726670086572152" r="10"></circle><circle fill="grey" cx="85.20153120512688" cy="1.850356381020828" r="10"></circle><circle fill="grey" cx="-40.97377801996153" cy="-81.72304683659115" r="10"></circle></g></g></svg>